<?xml version="1.0" encoding="UTF-8" standalone="no"?>
<!DOCTYPE svg PUBLIC "-//W3C//DTD SVG 1.1//EN"
 "http://www.w3.org/Graphics/SVG/1.1/DTD/svg11.dtd">
<!-- Generated by graphviz version 9.0.0 (20230911.1827)
 -->
<!-- Title: zork Pages: 1 -->
<svg width="1206pt" height="1372pt"
 viewBox="0.00 0.00 1206.16 1371.50" xmlns="http://www.w3.org/2000/svg" xmlns:xlink="http://www.w3.org/1999/xlink">
<g id="graph0" class="graph" transform="scale(1 1) rotate(0) translate(4 1367.5)">
<title>zork</title>
<polygon fill="white" stroke="none" points="-4,4 -4,-1367.5 1202.16,-1367.5 1202.16,4 -4,4"/>
<!-- west_of_house -->
<g id="node1" class="node">
<title>west_of_house</title>
<ellipse fill="none" stroke="black" cx="485.41" cy="-1345.5" rx="66.19" ry="18"/>
<text text-anchor="middle" x="485.41" y="-1340.45" font-family="Times,serif" font-size="14.00">west_of_house</text>
</g>
<!-- north_of_house -->
<g id="node2" class="node">
<title>north_of_house</title>
<ellipse fill="none" stroke="black" cx="388.41" cy="-1080" rx="68.75" ry="18"/>
<text text-anchor="middle" x="388.41" y="-1074.95" font-family="Times,serif" font-size="14.00">north_of_house</text>
</g>
<!-- west_of_house&#45;&gt;north_of_house -->
<g id="edge1" class="edge">
<title>west_of_house&#45;&gt;north_of_house</title>
<path fill="none" stroke="black" d="M452.75,-1329.41C443.71,-1324.08 434.45,-1317.41 427.41,-1309.5 398.68,-1277.22 396.31,-1263.23 387.16,-1221 378.92,-1182.96 381.47,-1137.74 384.55,-1109.2"/>
<polygon fill="black" stroke="black" points="387.99,-1109.9 385.69,-1099.56 381.04,-1109.08 387.99,-1109.9"/>
<text text-anchor="middle" x="403.53" y="-1207.7" font-family="Times,serif" font-size="14.00"> north</text>
</g>
<!-- south_of_house -->
<g id="node3" class="node">
<title>south_of_house</title>
<ellipse fill="none" stroke="black" cx="485.41" cy="-903" rx="69.26" ry="18"/>
<text text-anchor="middle" x="485.41" y="-897.95" font-family="Times,serif" font-size="14.00">south_of_house</text>
</g>
<!-- west_of_house&#45;&gt;south_of_house -->
<g id="edge2" class="edge">
<title>west_of_house&#45;&gt;south_of_house</title>
<path fill="none" stroke="black" d="M551.93,-1344.95C674.46,-1343.98 923.41,-1332.8 923.41,-1258 923.41,-1258 923.41,-1258 923.41,-990.5 923.41,-918.46 692.47,-905.43 565.97,-903.7"/>
<polygon fill="black" stroke="black" points="566.37,-900.2 556.33,-903.59 566.29,-907.2 566.37,-900.2"/>
<text text-anchor="middle" x="939.91" y="-1119.2" font-family="Times,serif" font-size="14.00"> south</text>
</g>
<!-- forest_i -->
<g id="node4" class="node">
<title>forest_i</title>
<ellipse fill="none" stroke="black" cx="589.41" cy="-1257" rx="39.07" ry="18"/>
<text text-anchor="middle" x="589.41" y="-1251.95" font-family="Times,serif" font-size="14.00">forest_i</text>
</g>
<!-- west_of_house&#45;&gt;forest_i -->
<g id="edge3" class="edge">
<title>west_of_house&#45;&gt;forest_i</title>
<path fill="none" stroke="black" d="M504.97,-1328.23C521.25,-1314.69 544.6,-1295.27 562.62,-1280.28"/>
<polygon fill="black" stroke="black" points="564.37,-1283.38 569.82,-1274.29 559.89,-1278 564.37,-1283.38"/>
<text text-anchor="middle" x="560.66" y="-1296.2" font-family="Times,serif" font-size="14.00"> west</text>
</g>
<!-- north_of_house&#45;&gt;west_of_house -->
<g id="edge5" class="edge">
<title>north_of_house&#45;&gt;west_of_house</title>
<path fill="none" stroke="black" d="M394.47,-1098.27C407.92,-1136.48 441.47,-1231.03 471.41,-1309.5 472.32,-1311.88 473.28,-1314.36 474.25,-1316.83"/>
<polygon fill="black" stroke="black" points="470.96,-1318.04 477.91,-1326.05 477.47,-1315.46 470.96,-1318.04"/>
<text text-anchor="middle" x="452.66" y="-1207.7" font-family="Times,serif" font-size="14.00"> west</text>
</g>
<!-- behind_house -->
<g id="node5" class="node">
<title>behind_house</title>
<ellipse fill="none" stroke="black" cx="365.41" cy="-991.5" rx="62.1" ry="18"/>
<text text-anchor="middle" x="365.41" y="-986.45" font-family="Times,serif" font-size="14.00">behind_house</text>
</g>
<!-- north_of_house&#45;&gt;behind_house -->
<g id="edge4" class="edge">
<title>north_of_house&#45;&gt;behind_house</title>
<path fill="none" stroke="black" d="M383.87,-1061.91C380.74,-1050.14 376.51,-1034.23 372.88,-1020.61"/>
<polygon fill="black" stroke="black" points="376.36,-1020.08 370.41,-1011.31 369.6,-1021.88 376.36,-1020.08"/>
<text text-anchor="middle" x="391.78" y="-1030.7" font-family="Times,serif" font-size="14.00"> east</text>
</g>
<!-- south_of_house&#45;&gt;west_of_house -->
<g id="edge9" class="edge">
<title>south_of_house&#45;&gt;west_of_house</title>
<path fill="none" stroke="black" d="M485.41,-921.23C485.41,-938.69 485.41,-966.47 485.41,-990.5 485.41,-1258 485.41,-1258 485.41,-1258 485.41,-1277.33 485.41,-1299.1 485.41,-1315.96"/>
<polygon fill="black" stroke="black" points="481.91,-1315.75 485.41,-1325.75 488.91,-1315.75 481.91,-1315.75"/>
<text text-anchor="middle" x="499.66" y="-1119.2" font-family="Times,serif" font-size="14.00"> west</text>
</g>
<!-- south_of_house&#45;&gt;behind_house -->
<g id="edge10" class="edge">
<title>south_of_house&#45;&gt;behind_house</title>
<path fill="none" stroke="black" d="M430.94,-914.41C415.13,-919.62 398.85,-927.41 386.66,-939 380.03,-945.3 375.4,-953.97 372.19,-962.41"/>
<polygon fill="black" stroke="black" points="368.94,-961.1 369.22,-971.69 375.6,-963.24 368.94,-961.1"/>
<text text-anchor="middle" x="399.78" y="-942.2" font-family="Times,serif" font-size="14.00"> east</text>
</g>
<!-- forest_i&#45;&gt;forest_i -->
<g id="edge11" class="edge">
<title>forest_i&#45;&gt;forest_i</title>
<path fill="none" stroke="black" d="M624.52,-1265.29C636.67,-1265.38 646.48,-1262.62 646.48,-1257 646.48,-1253.31 642.25,-1250.86 635.91,-1249.63"/>
<polygon fill="black" stroke="black" points="636.28,-1246.14 626.03,-1248.83 635.71,-1253.12 636.28,-1246.14"/>
<text text-anchor="middle" x="662.6" y="-1251.95" font-family="Times,serif" font-size="14.00"> north</text>
</g>
<!-- forest_ii -->
<g id="node7" class="node">
<title>forest_ii</title>
<ellipse fill="none" stroke="black" cx="589.41" cy="-1168.5" rx="41.63" ry="18"/>
<text text-anchor="middle" x="589.41" y="-1163.45" font-family="Times,serif" font-size="14.00">forest_ii</text>
</g>
<!-- forest_i&#45;&gt;forest_ii -->
<g id="edge12" class="edge">
<title>forest_i&#45;&gt;forest_ii</title>
<path fill="none" stroke="black" d="M589.41,-1238.91C589.41,-1227.26 589.41,-1211.55 589.41,-1198.02"/>
<polygon fill="black" stroke="black" points="592.91,-1198.36 589.41,-1188.36 585.91,-1198.36 592.91,-1198.36"/>
<text text-anchor="middle" x="601.78" y="-1207.7" font-family="Times,serif" font-size="14.00"> east</text>
</g>
<!-- forest_iii -->
<g id="node8" class="node">
<title>forest_iii</title>
<ellipse fill="none" stroke="black" cx="758.41" cy="-1168.5" rx="44.19" ry="18"/>
<text text-anchor="middle" x="758.41" y="-1163.45" font-family="Times,serif" font-size="14.00">forest_iii</text>
</g>
<!-- forest_i&#45;&gt;forest_iii -->
<g id="edge13" class="edge">
<title>forest_i&#45;&gt;forest_iii</title>
<path fill="none" stroke="black" d="M614.71,-1243.05C643.04,-1228.55 689.22,-1204.91 721.56,-1188.36"/>
<polygon fill="black" stroke="black" points="722.88,-1191.62 730.19,-1183.94 719.69,-1185.38 722.88,-1191.62"/>
<text text-anchor="middle" x="704.91" y="-1207.7" font-family="Times,serif" font-size="14.00"> south</text>
</g>
<!-- behind_house&#45;&gt;north_of_house -->
<g id="edge7" class="edge">
<title>behind_house&#45;&gt;north_of_house</title>
<path fill="none" stroke="black" d="M348.24,-1009.22C340.04,-1019.31 333.18,-1032.41 339.16,-1044 341.52,-1048.58 344.8,-1052.69 348.54,-1056.35"/>
<polygon fill="black" stroke="black" points="346.22,-1058.97 356.15,-1062.65 350.68,-1053.58 346.22,-1058.97"/>
<text text-anchor="middle" x="355.53" y="-1030.7" font-family="Times,serif" font-size="14.00"> north</text>
</g>
<!-- behind_house&#45;&gt;south_of_house -->
<g id="edge6" class="edge">
<title>behind_house&#45;&gt;south_of_house</title>
<path fill="none" stroke="black" d="M388.64,-974.41C397.1,-968.5 406.72,-961.74 415.41,-955.5 428.18,-946.34 442.14,-936.11 454.22,-927.19"/>
<polygon fill="black" stroke="black" points="456.26,-930.03 462.22,-921.27 452.1,-924.4 456.26,-930.03"/>
<text text-anchor="middle" x="453.91" y="-942.2" font-family="Times,serif" font-size="14.00"> south</text>
</g>
<!-- kitchen -->
<g id="node6" class="node">
<title>kitchen</title>
<ellipse fill="none" stroke="black" cx="315.41" cy="-903" rx="38.04" ry="18"/>
<text text-anchor="middle" x="315.41" y="-897.95" font-family="Times,serif" font-size="14.00">kitchen</text>
</g>
<!-- behind_house&#45;&gt;kitchen -->
<g id="edge8" class="edge">
<title>behind_house&#45;&gt;kitchen</title>
<path fill="none" stroke="black" d="M353.99,-973.6C350.27,-967.92 346.19,-961.5 342.66,-955.5 338.03,-947.62 333.27,-938.88 329.05,-930.88"/>
<polygon fill="black" stroke="black" points="332.28,-929.51 324.57,-922.25 326.07,-932.74 332.28,-929.51"/>
<text text-anchor="middle" x="355.78" y="-942.2" font-family="Times,serif" font-size="14.00"> east</text>
</g>
<!-- kitchen&#45;&gt;behind_house -->
<g id="edge29" class="edge">
<title>kitchen&#45;&gt;behind_house</title>
<path fill="none" stroke="black" d="M304.84,-920.67C299.6,-931.23 295.61,-944.84 301.91,-955.5 305.56,-961.69 310.75,-966.86 316.6,-971.15"/>
<polygon fill="black" stroke="black" points="314.6,-974.03 324.93,-976.4 318.33,-968.11 314.6,-974.03"/>
<text text-anchor="middle" x="316.66" y="-942.2" font-family="Times,serif" font-size="14.00"> west</text>
</g>
<!-- living_room -->
<g id="node15" class="node">
<title>living_room</title>
<ellipse fill="none" stroke="black" cx="260.41" cy="-814.5" rx="56.98" ry="18"/>
<text text-anchor="middle" x="260.41" y="-809.45" font-family="Times,serif" font-size="14.00">living_room</text>
</g>
<!-- kitchen&#45;&gt;living_room -->
<g id="edge30" class="edge">
<title>kitchen&#45;&gt;living_room</title>
<path fill="none" stroke="black" d="M281.7,-894.4C267.06,-889.24 251.31,-880.76 242.66,-867 237.92,-859.46 239.07,-850.49 242.42,-842.17"/>
<polygon fill="black" stroke="black" points="245.43,-843.97 246.87,-833.48 239.2,-840.78 245.43,-843.97"/>
<text text-anchor="middle" x="255.78" y="-853.7" font-family="Times,serif" font-size="14.00"> east</text>
</g>
<!-- attic -->
<g id="node16" class="node">
<title>attic</title>
<ellipse fill="none" stroke="black" cx="371.41" cy="-814.5" rx="27" ry="18"/>
<text text-anchor="middle" x="371.41" y="-809.45" font-family="Times,serif" font-size="14.00">attic</text>
</g>
<!-- kitchen&#45;&gt;attic -->
<g id="edge31" class="edge">
<title>kitchen&#45;&gt;attic</title>
<path fill="none" stroke="black" d="M322.97,-885.25C327.91,-874.91 334.79,-861.57 342.16,-850.5 344.7,-846.68 347.6,-842.79 350.55,-839.07"/>
<polygon fill="black" stroke="black" points="353.19,-841.37 356.88,-831.44 347.8,-836.9 353.19,-841.37"/>
<text text-anchor="middle" x="351.03" y="-853.7" font-family="Times,serif" font-size="14.00"> up</text>
</g>
<!-- forest_ii&#45;&gt;north_of_house -->
<g id="edge15" class="edge">
<title>forest_ii&#45;&gt;north_of_house</title>
<path fill="none" stroke="black" d="M568.26,-1152.88C559.21,-1146.62 548.53,-1139.21 538.91,-1132.5 528.44,-1125.2 526.95,-1121.44 515.41,-1116 496.04,-1106.87 473.84,-1099.73 453.48,-1094.35"/>
<polygon fill="black" stroke="black" points="454.41,-1090.98 443.85,-1091.92 452.69,-1097.77 454.41,-1090.98"/>
<text text-anchor="middle" x="552.66" y="-1119.2" font-family="Times,serif" font-size="14.00"> west</text>
</g>
<!-- up_a_tree -->
<g id="node9" class="node">
<title>up_a_tree</title>
<ellipse fill="none" stroke="black" cx="560.41" cy="-1080" rx="47.26" ry="18"/>
<text text-anchor="middle" x="560.41" y="-1074.95" font-family="Times,serif" font-size="14.00">up_a_tree</text>
</g>
<!-- forest_ii&#45;&gt;up_a_tree -->
<g id="edge14" class="edge">
<title>forest_ii&#45;&gt;up_a_tree</title>
<path fill="none" stroke="black" d="M610.21,-1152.5C621.56,-1142.39 631.91,-1128.65 624.41,-1116 619.96,-1108.5 613.28,-1102.5 605.89,-1097.74"/>
<polygon fill="black" stroke="black" points="607.65,-1094.72 597.21,-1092.91 604.24,-1100.83 607.65,-1094.72"/>
<text text-anchor="middle" x="635.03" y="-1119.2" font-family="Times,serif" font-size="14.00"> up</text>
</g>
<!-- forest_iii&#45;&gt;south_of_house -->
<g id="edge17" class="edge">
<title>forest_iii&#45;&gt;south_of_house</title>
<path fill="none" stroke="black" d="M765.31,-1150.45C773.05,-1128.41 782.55,-1089.59 766.41,-1062 719.23,-981.34 614.07,-938.69 546.63,-918.77"/>
<polygon fill="black" stroke="black" points="547.76,-915.46 537.18,-916.07 545.84,-922.19 547.76,-915.46"/>
<text text-anchor="middle" x="769.53" y="-1030.7" font-family="Times,serif" font-size="14.00"> north</text>
</g>
<!-- clearing -->
<g id="node10" class="node">
<title>clearing</title>
<ellipse fill="none" stroke="black" cx="666.41" cy="-1080" rx="40.6" ry="18"/>
<text text-anchor="middle" x="666.41" y="-1074.95" font-family="Times,serif" font-size="14.00">clearing</text>
</g>
<!-- forest_iii&#45;&gt;clearing -->
<g id="edge18" class="edge">
<title>forest_iii&#45;&gt;clearing</title>
<path fill="none" stroke="black" d="M724.58,-1156.62C711.67,-1151.09 697.67,-1143.22 687.66,-1132.5 681.49,-1125.89 676.99,-1117.24 673.76,-1108.92"/>
<polygon fill="black" stroke="black" points="677.09,-1107.82 670.6,-1099.44 670.45,-1110.03 677.09,-1107.82"/>
<text text-anchor="middle" x="699.78" y="-1119.2" font-family="Times,serif" font-size="14.00"> east</text>
</g>
<!-- forest_iv -->
<g id="node11" class="node">
<title>forest_iv</title>
<ellipse fill="none" stroke="black" cx="1012.41" cy="-1080" rx="43.67" ry="18"/>
<text text-anchor="middle" x="1012.41" y="-1074.95" font-family="Times,serif" font-size="14.00">forest_iv</text>
</g>
<!-- forest_iii&#45;&gt;forest_iv -->
<g id="edge19" class="edge">
<title>forest_iii&#45;&gt;forest_iv</title>
<path fill="none" stroke="black" d="M774.52,-1151.38C788.23,-1138.01 807.14,-1120.49 816.41,-1116 860.81,-1094.48 916.63,-1086.07 957.34,-1082.85"/>
<polygon fill="black" stroke="black" points="957.42,-1086.35 967.15,-1082.16 956.93,-1079.37 957.42,-1086.35"/>
<text text-anchor="middle" x="832.91" y="-1119.2" font-family="Times,serif" font-size="14.00"> south</text>
</g>
<!-- up_a_tree&#45;&gt;forest_ii -->
<g id="edge16" class="edge">
<title>up_a_tree&#45;&gt;forest_ii</title>
<path fill="none" stroke="black" d="M566.23,-1098.35C570.19,-1110.18 575.53,-1126.11 580.09,-1139.69"/>
<polygon fill="black" stroke="black" points="576.7,-1140.61 583.2,-1148.98 583.34,-1138.38 576.7,-1140.61"/>
<text text-anchor="middle" x="594.28" y="-1119.2" font-family="Times,serif" font-size="14.00"> down</text>
</g>
<!-- clearing&#45;&gt;forest_iii -->
<g id="edge21" class="edge">
<title>clearing&#45;&gt;forest_iii</title>
<path fill="none" stroke="black" d="M687.24,-1095.53C695.37,-1101.54 704.6,-1108.78 712.41,-1116 721.17,-1124.09 730.06,-1133.67 737.67,-1142.36"/>
<polygon fill="black" stroke="black" points="734.91,-1144.52 744.08,-1149.84 740.23,-1139.97 734.91,-1144.52"/>
<text text-anchor="middle" x="744.91" y="-1119.2" font-family="Times,serif" font-size="14.00"> south</text>
</g>
<!-- clearing&#45;&gt;clearing -->
<g id="edge20" class="edge">
<title>clearing&#45;&gt;clearing</title>
<path fill="none" stroke="black" d="M703.04,-1088.3C715.25,-1088.3 725.01,-1085.53 725.01,-1080 725.01,-1076.37 720.81,-1073.93 714.46,-1072.68"/>
<polygon fill="black" stroke="black" points="714.81,-1069.2 704.55,-1071.83 714.21,-1076.17 714.81,-1069.2"/>
<text text-anchor="middle" x="741.14" y="-1074.95" font-family="Times,serif" font-size="14.00"> north</text>
</g>
<!-- forest_iv&#45;&gt;forest_iii -->
<g id="edge23" class="edge">
<title>forest_iv&#45;&gt;forest_iii</title>
<path fill="none" stroke="black" d="M971.71,-1087.15C943.16,-1092.42 904.59,-1101.51 872.91,-1116 861.3,-1121.31 860.67,-1126.5 849.41,-1132.5 834.87,-1140.25 818.22,-1147.17 803.18,-1152.77"/>
<polygon fill="black" stroke="black" points="802.2,-1149.4 793.98,-1156.09 804.58,-1155.98 802.2,-1149.4"/>
<text text-anchor="middle" x="886.66" y="-1119.2" font-family="Times,serif" font-size="14.00"> west</text>
</g>
<!-- canyon_view -->
<g id="node12" class="node">
<title>canyon_view</title>
<ellipse fill="none" stroke="black" cx="1105.41" cy="-903" rx="60.05" ry="18"/>
<text text-anchor="middle" x="1105.41" y="-897.95" font-family="Times,serif" font-size="14.00">canyon_view</text>
</g>
<!-- forest_iv&#45;&gt;canyon_view -->
<g id="edge22" class="edge">
<title>forest_iv&#45;&gt;canyon_view</title>
<path fill="none" stroke="black" d="M1055.28,-1075.81C1083.62,-1071.9 1120.38,-1063.23 1147.41,-1044 1162.43,-1033.32 1165.07,-1027.14 1170.41,-1009.5 1179.96,-977.96 1169.44,-963.52 1147.41,-939 1143.79,-934.98 1139.71,-931.01 1135.54,-927.27"/>
<polygon fill="black" stroke="black" points="1138.02,-924.79 1128.14,-920.97 1133.48,-930.12 1138.02,-924.79"/>
<text text-anchor="middle" x="1185.78" y="-986.45" font-family="Times,serif" font-size="14.00"> east</text>
</g>
<!-- forest_v -->
<g id="node13" class="node">
<title>forest_v</title>
<ellipse fill="none" stroke="black" cx="1012.41" cy="-991.5" rx="41.12" ry="18"/>
<text text-anchor="middle" x="1012.41" y="-986.45" font-family="Times,serif" font-size="14.00">forest_v</text>
</g>
<!-- forest_iv&#45;&gt;forest_v -->
<g id="edge24" class="edge">
<title>forest_iv&#45;&gt;forest_v</title>
<path fill="none" stroke="black" d="M1012.41,-1061.91C1012.41,-1050.26 1012.41,-1034.55 1012.41,-1021.02"/>
<polygon fill="black" stroke="black" points="1015.91,-1021.36 1012.41,-1011.36 1008.91,-1021.36 1015.91,-1021.36"/>
<text text-anchor="middle" x="1028.53" y="-1030.7" font-family="Times,serif" font-size="14.00"> north</text>
</g>
<!-- canyon_view&#45;&gt;forest_iv -->
<g id="edge25" class="edge">
<title>canyon_view&#45;&gt;forest_iv</title>
<path fill="none" stroke="black" d="M1115.15,-920.89C1119.73,-931.03 1123.4,-944.14 1119.41,-955.5 1104.68,-997.4 1067.96,-1034.23 1041.64,-1056.53"/>
<polygon fill="black" stroke="black" points="1039.48,-1053.78 1033.99,-1062.84 1043.93,-1059.18 1039.48,-1053.78"/>
<text text-anchor="middle" x="1126.91" y="-986.45" font-family="Times,serif" font-size="14.00"> south</text>
</g>
<!-- canyon_view&#45;&gt;forest_v -->
<g id="edge26" class="edge">
<title>canyon_view&#45;&gt;forest_v</title>
<path fill="none" stroke="black" d="M1053.46,-912.48C1038.27,-917.61 1023.26,-925.82 1013.91,-939 1009.25,-945.57 1007.68,-953.88 1007.61,-961.91"/>
<polygon fill="black" stroke="black" points="1004.1,-961.97 1008.28,-971.71 1011.09,-961.49 1004.1,-961.97"/>
<text text-anchor="middle" x="1027.66" y="-942.2" font-family="Times,serif" font-size="14.00"> west</text>
</g>
<!-- forest_v&#45;&gt;canyon_view -->
<g id="edge27" class="edge">
<title>forest_v&#45;&gt;canyon_view</title>
<path fill="none" stroke="black" d="M1028.44,-974.5C1038.84,-964.22 1052.77,-950.65 1065.41,-939 1069.36,-935.36 1073.58,-931.57 1077.74,-927.88"/>
<polygon fill="black" stroke="black" points="1079.76,-930.76 1084.97,-921.53 1075.14,-925.5 1079.76,-930.76"/>
<text text-anchor="middle" x="1092.41" y="-942.2" font-family="Times,serif" font-size="14.00"> southeast</text>
</g>
<!-- forest_vi -->
<g id="node14" class="node">
<title>forest_vi</title>
<ellipse fill="none" stroke="black" cx="956.41" cy="-903" rx="43.67" ry="18"/>
<text text-anchor="middle" x="956.41" y="-897.95" font-family="Times,serif" font-size="14.00">forest_vi</text>
</g>
<!-- forest_v&#45;&gt;forest_vi -->
<g id="edge28" class="edge">
<title>forest_v&#45;&gt;forest_vi</title>
<path fill="none" stroke="black" d="M982.78,-978.67C972.94,-973.17 963.06,-965.57 957.41,-955.5 953.57,-948.67 952.24,-940.47 952.16,-932.65"/>
<polygon fill="black" stroke="black" points="955.64,-933 952.73,-922.81 948.66,-932.59 955.64,-933"/>
<text text-anchor="middle" x="973.91" y="-942.2" font-family="Times,serif" font-size="14.00"> south</text>
</g>
<!-- living_room&#45;&gt;kitchen -->
<g id="edge32" class="edge">
<title>living_room&#45;&gt;kitchen</title>
<path fill="none" stroke="black" d="M269.98,-832.4C275.84,-842.54 283.59,-855.65 290.91,-867 292.82,-869.96 294.86,-873.02 296.92,-876.05"/>
<polygon fill="black" stroke="black" points="294,-877.98 302.57,-884.2 299.75,-873.99 294,-877.98"/>
<text text-anchor="middle" x="305.66" y="-853.7" font-family="Times,serif" font-size="14.00"> west</text>
</g>
<!-- cellar -->
<g id="node17" class="node">
<title>cellar</title>
<ellipse fill="none" stroke="black" cx="260.41" cy="-726" rx="31.39" ry="18"/>
<text text-anchor="middle" x="260.41" y="-720.95" font-family="Times,serif" font-size="14.00">cellar</text>
</g>
<!-- living_room&#45;&gt;cellar -->
<g id="edge33" class="edge">
<title>living_room&#45;&gt;cellar</title>
<path fill="none" stroke="black" d="M260.41,-796.41C260.41,-784.76 260.41,-769.05 260.41,-755.52"/>
<polygon fill="black" stroke="black" points="263.91,-755.86 260.41,-745.86 256.91,-755.86 263.91,-755.86"/>
<text text-anchor="middle" x="277.28" y="-765.2" font-family="Times,serif" font-size="14.00"> down</text>
</g>
<!-- attic&#45;&gt;kitchen -->
<g id="edge34" class="edge">
<title>attic&#45;&gt;kitchen</title>
<path fill="none" stroke="black" d="M370.25,-832.83C368.87,-843.39 365.89,-856.76 359.41,-867 356.08,-872.26 351.69,-877.07 346.96,-881.33"/>
<polygon fill="black" stroke="black" points="344.99,-878.41 339.42,-887.42 349.4,-883.86 344.99,-878.41"/>
<text text-anchor="middle" x="383.28" y="-853.7" font-family="Times,serif" font-size="14.00"> down</text>
</g>
<!-- west_of_chasm -->
<g id="node18" class="node">
<title>west_of_chasm</title>
<ellipse fill="none" stroke="black" cx="260.41" cy="-637.5" rx="68.75" ry="18"/>
<text text-anchor="middle" x="260.41" y="-632.45" font-family="Times,serif" font-size="14.00">west_of_chasm</text>
</g>
<!-- cellar&#45;&gt;west_of_chasm -->
<g id="edge35" class="edge">
<title>cellar&#45;&gt;west_of_chasm</title>
<path fill="none" stroke="black" d="M262.8,-707.59C263.46,-701.98 264.08,-695.74 264.41,-690 264.83,-682.68 264.83,-680.82 264.41,-673.5 264.29,-671.44 264.14,-669.31 263.95,-667.17"/>
<polygon fill="black" stroke="black" points="267.46,-667.01 262.95,-657.42 260.49,-667.72 267.46,-667.01"/>
<text text-anchor="middle" x="281.91" y="-676.7" font-family="Times,serif" font-size="14.00"> south</text>
</g>
<!-- troll_room -->
<g id="node19" class="node">
<title>troll_room</title>
<ellipse fill="none" stroke="black" cx="398.41" cy="-460.5" rx="50.84" ry="18"/>
<text text-anchor="middle" x="398.41" y="-455.45" font-family="Times,serif" font-size="14.00">troll_room</text>
</g>
<!-- cellar&#45;&gt;troll_room -->
<g id="edge36" class="edge">
<title>cellar&#45;&gt;troll_room</title>
<path fill="none" stroke="black" d="M238.57,-712.83C219.74,-700.96 193.84,-680.99 182.41,-655.5 165.46,-617.69 211.21,-531.23 211.41,-531 223.43,-517.22 232.3,-521.65 248.41,-513 261.14,-506.17 263.14,-502.2 276.41,-496.5 298.22,-487.13 323.27,-479.44 344.98,-473.69"/>
<polygon fill="black" stroke="black" points="345.72,-477.12 354.53,-471.23 343.97,-470.34 345.72,-477.12"/>
<text text-anchor="middle" x="200.78" y="-588.2" font-family="Times,serif" font-size="14.00"> east</text>
</g>
<!-- west_of_chasm&#45;&gt;cellar -->
<g id="edge38" class="edge">
<title>west_of_chasm&#45;&gt;cellar</title>
<path fill="none" stroke="black" d="M242.98,-655.18C238.5,-660.56 234.27,-666.86 231.91,-673.5 229.45,-680.41 229.45,-683.09 231.91,-690 233.26,-693.81 235.23,-697.5 237.5,-700.97"/>
<polygon fill="black" stroke="black" points="234.7,-703.07 243.56,-708.87 240.25,-698.81 234.7,-703.07"/>
<text text-anchor="middle" x="246.66" y="-676.7" font-family="Times,serif" font-size="14.00"> west</text>
</g>
<!-- gallery -->
<g id="node20" class="node">
<title>gallery</title>
<ellipse fill="none" stroke="black" cx="191.41" cy="-372" rx="36.51" ry="18"/>
<text text-anchor="middle" x="191.41" y="-366.95" font-family="Times,serif" font-size="14.00">gallery</text>
</g>
<!-- west_of_chasm&#45;&gt;gallery -->
<g id="edge37" class="edge">
<title>west_of_chasm&#45;&gt;gallery</title>
<path fill="none" stroke="black" d="M246.13,-619.53C228.27,-596.95 198.87,-554.98 189.41,-513 179.14,-467.42 179.81,-454.49 184.41,-408 184.62,-405.92 184.89,-403.77 185.21,-401.62"/>
<polygon fill="black" stroke="black" points="188.64,-402.3 186.97,-391.83 181.76,-401.06 188.64,-402.3"/>
<text text-anchor="middle" x="205.91" y="-499.7" font-family="Times,serif" font-size="14.00"> south</text>
</g>
<!-- north_south_crawlway -->
<g id="node21" class="node">
<title>north_south_crawlway</title>
<ellipse fill="none" stroke="black" cx="315.41" cy="-549" rx="95.37" ry="18"/>
<text text-anchor="middle" x="315.41" y="-543.95" font-family="Times,serif" font-size="14.00">north_south_crawlway</text>
</g>
<!-- west_of_chasm&#45;&gt;north_south_crawlway -->
<g id="edge39" class="edge">
<title>west_of_chasm&#45;&gt;north_south_crawlway</title>
<path fill="none" stroke="black" d="M278.5,-619.73C283.75,-614.26 289.2,-607.93 293.41,-601.5 298.12,-594.31 302.2,-585.95 305.52,-578.08"/>
<polygon fill="black" stroke="black" points="308.74,-579.46 309.15,-568.87 302.23,-576.89 308.74,-579.46"/>
<text text-anchor="middle" x="318.53" y="-588.2" font-family="Times,serif" font-size="14.00"> north</text>
</g>
<!-- troll_room&#45;&gt;cellar -->
<g id="edge60" class="edge">
<title>troll_room&#45;&gt;cellar</title>
<path fill="none" stroke="black" d="M408.77,-478.39C411.73,-483.97 414.63,-490.33 416.41,-496.5 425.1,-526.63 430.77,-537.77 419.41,-567 394.79,-630.37 329.73,-680.83 290.89,-706.49"/>
<polygon fill="black" stroke="black" points="289.39,-703.29 282.89,-711.65 293.19,-709.17 289.39,-703.29"/>
<text text-anchor="middle" x="425.66" y="-588.2" font-family="Times,serif" font-size="14.00"> west</text>
</g>
<!-- troll_room&#45;&gt;north_south_crawlway -->
<g id="edge61" class="edge">
<title>troll_room&#45;&gt;north_south_crawlway</title>
<path fill="none" stroke="black" d="M372.56,-476.38C364.05,-482.02 354.91,-488.92 347.66,-496.5 340.71,-503.76 334.47,-512.75 329.37,-521.18"/>
<polygon fill="black" stroke="black" points="326.42,-519.29 324.49,-529.7 332.5,-522.76 326.42,-519.29"/>
<text text-anchor="middle" x="360.78" y="-499.7" font-family="Times,serif" font-size="14.00"> east</text>
</g>
<!-- maze -->
<g id="node29" class="node">
<title>maze</title>
<ellipse fill="none" stroke="black" cx="327.41" cy="-372" rx="30.88" ry="18"/>
<text text-anchor="middle" x="327.41" y="-366.95" font-family="Times,serif" font-size="14.00">maze</text>
</g>
<!-- troll_room&#45;&gt;maze -->
<g id="edge62" class="edge">
<title>troll_room&#45;&gt;maze</title>
<path fill="none" stroke="black" d="M371.05,-445.04C362.58,-439.52 353.81,-432.58 347.41,-424.5 341.92,-417.57 337.8,-408.96 334.76,-400.78"/>
<polygon fill="black" stroke="black" points="338.17,-399.94 331.74,-391.52 331.51,-402.11 338.17,-399.94"/>
<text text-anchor="middle" x="363.91" y="-411.2" font-family="Times,serif" font-size="14.00"> south</text>
</g>
<!-- east_west_passageway -->
<g id="node30" class="node">
<title>east_west_passageway</title>
<ellipse fill="none" stroke="black" cx="471.41" cy="-372" rx="95.37" ry="18"/>
<text text-anchor="middle" x="471.41" y="-366.95" font-family="Times,serif" font-size="14.00">east_west_passageway</text>
</g>
<!-- troll_room&#45;&gt;east_west_passageway -->
<g id="edge63" class="edge">
<title>troll_room&#45;&gt;east_west_passageway</title>
<path fill="none" stroke="black" d="M399.69,-442.29C401.25,-431.53 404.66,-417.88 412.16,-408 415.82,-403.18 420.34,-398.9 425.25,-395.13"/>
<polygon fill="black" stroke="black" points="426.86,-398.27 433.15,-389.75 422.92,-392.49 426.86,-398.27"/>
<text text-anchor="middle" x="428.53" y="-411.2" font-family="Times,serif" font-size="14.00"> north</text>
</g>
<!-- studio -->
<g id="node22" class="node">
<title>studio</title>
<ellipse fill="none" stroke="black" cx="233.41" cy="-460.5" rx="33.44" ry="18"/>
<text text-anchor="middle" x="233.41" y="-455.45" font-family="Times,serif" font-size="14.00">studio</text>
</g>
<!-- gallery&#45;&gt;studio -->
<g id="edge40" class="edge">
<title>gallery&#45;&gt;studio</title>
<path fill="none" stroke="black" d="M188.33,-390.03C187.25,-400.47 187.36,-413.83 192.41,-424.5 194.95,-429.86 198.74,-434.71 203.01,-438.98"/>
<polygon fill="black" stroke="black" points="200.62,-441.54 210.47,-445.45 205.21,-436.25 200.62,-441.54"/>
<text text-anchor="middle" x="208.91" y="-411.2" font-family="Times,serif" font-size="14.00"> south</text>
</g>
<!-- bank_entrance -->
<g id="node23" class="node">
<title>bank_entrance</title>
<ellipse fill="none" stroke="black" cx="140.41" cy="-283.5" rx="64.66" ry="18"/>
<text text-anchor="middle" x="140.41" y="-278.45" font-family="Times,serif" font-size="14.00">bank_entrance</text>
</g>
<!-- gallery&#45;&gt;bank_entrance -->
<g id="edge41" class="edge">
<title>gallery&#45;&gt;bank_entrance</title>
<path fill="none" stroke="black" d="M165.51,-359C156.4,-353.38 147.13,-345.74 141.91,-336 138.2,-329.09 136.86,-320.87 136.7,-313.06"/>
<polygon fill="black" stroke="black" points="140.18,-313.38 137.13,-303.23 133.19,-313.07 140.18,-313.38"/>
<text text-anchor="middle" x="156.66" y="-322.7" font-family="Times,serif" font-size="14.00"> west</text>
</g>
<!-- north_south_crawlway&#45;&gt;west_of_chasm -->
<g id="edge58" class="edge">
<title>north_south_crawlway&#45;&gt;west_of_chasm</title>
<path fill="none" stroke="black" d="M276.36,-565.81C268.69,-570.78 261.63,-577.09 257.16,-585 253.29,-591.83 252.46,-600.03 253.03,-607.85"/>
<polygon fill="black" stroke="black" points="249.56,-608.35 254.53,-617.7 256.48,-607.29 249.56,-608.35"/>
<text text-anchor="middle" x="273.53" y="-588.2" font-family="Times,serif" font-size="14.00"> north</text>
</g>
<!-- north_south_crawlway&#45;&gt;troll_room -->
<g id="edge59" class="edge">
<title>north_south_crawlway&#45;&gt;troll_room</title>
<path fill="none" stroke="black" d="M352.11,-532.03C360.9,-526.91 369.68,-520.57 376.41,-513 382.36,-506.31 386.88,-497.76 390.22,-489.56"/>
<polygon fill="black" stroke="black" points="393.49,-490.83 393.57,-480.23 386.9,-488.46 393.49,-490.83"/>
<text text-anchor="middle" x="399.78" y="-499.7" font-family="Times,serif" font-size="14.00"> east</text>
</g>
<!-- north_south_crawlway&#45;&gt;studio -->
<g id="edge57" class="edge">
<title>north_south_crawlway&#45;&gt;studio</title>
<path fill="none" stroke="black" d="M256.71,-534.54C246.32,-529.49 236.8,-522.55 230.41,-513 225.92,-506.3 224.96,-497.94 225.6,-489.92"/>
<polygon fill="black" stroke="black" points="229.04,-490.58 227.22,-480.14 222.14,-489.44 229.04,-490.58"/>
<text text-anchor="middle" x="246.91" y="-499.7" font-family="Times,serif" font-size="14.00"> south</text>
</g>
<!-- studio&#45;&gt;gallery -->
<g id="edge55" class="edge">
<title>studio&#45;&gt;gallery</title>
<path fill="none" stroke="black" d="M233.32,-442C232.64,-431.64 230.66,-418.53 225.41,-408 223.28,-403.74 220.45,-399.66 217.32,-395.88"/>
<polygon fill="black" stroke="black" points="220.1,-393.73 210.72,-388.81 214.99,-398.51 220.1,-393.73"/>
<text text-anchor="middle" x="259.91" y="-411.2" font-family="Times,serif" font-size="14.00"> northwest</text>
</g>
<!-- studio&#45;&gt;north_south_crawlway -->
<g id="edge56" class="edge">
<title>studio&#45;&gt;north_south_crawlway</title>
<path fill="none" stroke="black" d="M248.2,-477.1C260.22,-489.78 277.42,-507.92 291.41,-522.68"/>
<polygon fill="black" stroke="black" points="288.75,-524.96 298.17,-529.81 293.83,-520.15 288.75,-524.96"/>
<text text-anchor="middle" x="298.53" y="-499.7" font-family="Times,serif" font-size="14.00"> north</text>
</g>
<!-- bank_entrance&#45;&gt;gallery -->
<g id="edge42" class="edge">
<title>bank_entrance&#45;&gt;gallery</title>
<path fill="none" stroke="black" d="M156.54,-301.09C161.41,-306.65 166.49,-313.08 170.41,-319.5 174.92,-326.89 178.85,-335.43 182.05,-343.4"/>
<polygon fill="black" stroke="black" points="178.75,-344.57 185.54,-352.7 185.3,-342.11 178.75,-344.57"/>
<text text-anchor="middle" x="195.91" y="-322.7" font-family="Times,serif" font-size="14.00"> south</text>
</g>
<!-- east_teller_room -->
<g id="node24" class="node">
<title>east_teller_room</title>
<ellipse fill="none" stroke="black" cx="150.41" cy="-18" rx="73.36" ry="18"/>
<text text-anchor="middle" x="150.41" y="-12.95" font-family="Times,serif" font-size="14.00">east_teller_room</text>
</g>
<!-- bank_entrance&#45;&gt;east_teller_room -->
<g id="edge43" class="edge">
<title>bank_entrance&#45;&gt;east_teller_room</title>
<path fill="none" stroke="black" d="M101.11,-268.83C88.86,-263.39 75.84,-256.3 65.41,-247.5 24.12,-212.65 -11.95,-194.07 4.16,-142.5 18.42,-96.84 28.15,-84 65.41,-54 73.9,-47.16 83.9,-41.49 94.02,-36.83"/>
<polygon fill="black" stroke="black" points="95.31,-40.08 103.14,-32.94 92.57,-33.65 95.31,-40.08"/>
<text text-anchor="middle" x="31.03" y="-145.7" font-family="Times,serif" font-size="14.00"> northeast</text>
</g>
<!-- west_teller_room -->
<g id="node25" class="node">
<title>west_teller_room</title>
<ellipse fill="none" stroke="black" cx="267.41" cy="-195" rx="75.92" ry="18"/>
<text text-anchor="middle" x="267.41" y="-189.95" font-family="Times,serif" font-size="14.00">west_teller_room</text>
</g>
<!-- bank_entrance&#45;&gt;west_teller_room -->
<g id="edge44" class="edge">
<title>bank_entrance&#45;&gt;west_teller_room</title>
<path fill="none" stroke="black" d="M150.79,-265.3C158.17,-254.27 168.97,-240.31 181.41,-231 190.31,-224.34 200.67,-218.72 211.04,-214.07"/>
<polygon fill="black" stroke="black" points="212.1,-217.43 219.97,-210.33 209.39,-210.97 212.1,-217.43"/>
<text text-anchor="middle" x="209.91" y="-234.2" font-family="Times,serif" font-size="14.00"> northwest</text>
</g>
<!-- east_teller_room&#45;&gt;bank_entrance -->
<g id="edge45" class="edge">
<title>east_teller_room&#45;&gt;bank_entrance</title>
<path fill="none" stroke="black" d="M132.94,-35.72C120.64,-48.76 105.21,-68.05 98.41,-88.5 79.07,-146.63 106.85,-217.59 125.63,-255.52"/>
<polygon fill="black" stroke="black" points="122.28,-256.65 129.95,-263.95 128.51,-253.46 122.28,-256.65"/>
<text text-anchor="middle" x="110.91" y="-145.7" font-family="Times,serif" font-size="14.00"> south</text>
</g>
<!-- safety_depository -->
<g id="node26" class="node">
<title>safety_depository</title>
<ellipse fill="none" stroke="black" cx="332.41" cy="-106.5" rx="76.43" ry="18"/>
<text text-anchor="middle" x="332.41" y="-101.45" font-family="Times,serif" font-size="14.00">safety_depository</text>
</g>
<!-- east_teller_room&#45;&gt;safety_depository -->
<g id="edge46" class="edge">
<title>east_teller_room&#45;&gt;safety_depository</title>
<path fill="none" stroke="black" d="M183.12,-34.55C212.81,-48.66 256.78,-69.56 289.32,-85.02"/>
<polygon fill="black" stroke="black" points="287.55,-88.05 298.08,-89.19 290.55,-81.73 287.55,-88.05"/>
<text text-anchor="middle" x="270.78" y="-57.2" font-family="Times,serif" font-size="14.00"> east</text>
</g>
<!-- west_teller_room&#45;&gt;bank_entrance -->
<g id="edge51" class="edge">
<title>west_teller_room&#45;&gt;bank_entrance</title>
<path fill="none" stroke="black" d="M261.3,-213.41C256.6,-224.53 249.08,-238.5 238.41,-247.5 227.78,-256.46 214.69,-263.19 201.58,-268.23"/>
<polygon fill="black" stroke="black" points="200.8,-264.8 192.53,-271.42 203.13,-271.4 200.8,-264.8"/>
<text text-anchor="middle" x="268.91" y="-234.2" font-family="Times,serif" font-size="14.00"> south</text>
</g>
<!-- west_teller_room&#45;&gt;safety_depository -->
<g id="edge52" class="edge">
<title>west_teller_room&#45;&gt;safety_depository</title>
<path fill="none" stroke="black" d="M287.4,-177.25C293.28,-171.78 299.45,-165.45 304.41,-159 310.1,-151.6 315.31,-142.88 319.66,-134.75"/>
<polygon fill="black" stroke="black" points="322.74,-136.4 324.15,-125.9 316.5,-133.23 322.74,-136.4"/>
<text text-anchor="middle" x="329.66" y="-145.7" font-family="Times,serif" font-size="14.00"> west</text>
</g>
<!-- viewing_room -->
<g id="node28" class="node">
<title>viewing_room</title>
<ellipse fill="none" stroke="black" cx="172.41" cy="-106.5" rx="65.17" ry="18"/>
<text text-anchor="middle" x="172.41" y="-101.45" font-family="Times,serif" font-size="14.00">viewing_room</text>
</g>
<!-- west_teller_room&#45;&gt;viewing_room -->
<g id="edge53" class="edge">
<title>west_teller_room&#45;&gt;viewing_room</title>
<path fill="none" stroke="black" d="M249.09,-177.32C234.9,-164.4 215.03,-146.31 199.07,-131.78"/>
<polygon fill="black" stroke="black" points="201.54,-129.29 191.79,-125.15 196.83,-134.47 201.54,-129.29"/>
<text text-anchor="middle" x="245.53" y="-145.7" font-family="Times,serif" font-size="14.00"> north</text>
</g>
<!-- safety_depository&#45;&gt;east_teller_room -->
<g id="edge47" class="edge">
<title>safety_depository&#45;&gt;east_teller_room</title>
<path fill="none" stroke="black" d="M275.24,-94.22C244.44,-87.47 210.08,-78.65 196.66,-70.5 186.03,-64.04 176.43,-54.39 168.78,-45.18"/>
<polygon fill="black" stroke="black" points="171.64,-43.17 162.73,-37.44 166.13,-47.48 171.64,-43.17"/>
<text text-anchor="middle" x="209.78" y="-57.2" font-family="Times,serif" font-size="14.00"> east</text>
</g>
<!-- safety_depository&#45;&gt;west_teller_room -->
<g id="edge49" class="edge">
<title>safety_depository&#45;&gt;west_teller_room</title>
<path fill="none" stroke="black" d="M297.17,-122.94C289.05,-128.06 281.24,-134.54 275.91,-142.5 271.37,-149.28 268.97,-157.66 267.77,-165.68"/>
<polygon fill="black" stroke="black" points="264.31,-165.15 266.89,-175.43 271.28,-165.78 264.31,-165.15"/>
<text text-anchor="middle" x="290.66" y="-145.7" font-family="Times,serif" font-size="14.00"> west</text>
</g>
<!-- chairmans_office -->
<g id="node27" class="node">
<title>chairmans_office</title>
<ellipse fill="none" stroke="black" cx="332.41" cy="-18" rx="75.41" ry="18"/>
<text text-anchor="middle" x="332.41" y="-12.95" font-family="Times,serif" font-size="14.00">chairmans_office</text>
</g>
<!-- safety_depository&#45;&gt;chairmans_office -->
<g id="edge48" class="edge">
<title>safety_depository&#45;&gt;chairmans_office</title>
<path fill="none" stroke="black" d="M315.89,-88.68C311.64,-83.3 307.64,-77.04 305.41,-70.5 303.04,-63.56 303.04,-60.94 305.41,-54 306.45,-50.94 307.89,-47.93 309.55,-45.05"/>
<polygon fill="black" stroke="black" points="312.26,-47.29 315.03,-37.07 306.49,-43.33 312.26,-47.29"/>
<text text-anchor="middle" x="321.91" y="-57.2" font-family="Times,serif" font-size="14.00"> south</text>
</g>
<!-- chairmans_office&#45;&gt;safety_depository -->
<g id="edge50" class="edge">
<title>chairmans_office&#45;&gt;safety_depository</title>
<path fill="none" stroke="black" d="M335.99,-36.37C336.98,-41.97 337.92,-48.23 338.41,-54 339.03,-61.31 339.03,-63.19 338.41,-70.5 338.23,-72.58 338,-74.71 337.72,-76.86"/>
<polygon fill="black" stroke="black" points="334.28,-76.22 336.22,-86.63 341.2,-77.28 334.28,-76.22"/>
<text text-anchor="middle" x="355.53" y="-57.2" font-family="Times,serif" font-size="14.00"> north</text>
</g>
<!-- viewing_room&#45;&gt;bank_entrance -->
<g id="edge54" class="edge">
<title>viewing_room&#45;&gt;bank_entrance</title>
<path fill="none" stroke="black" d="M165.49,-124.62C160.19,-138.5 153.16,-158.7 149.41,-177 144.14,-202.71 141.94,-232.56 141.04,-253.93"/>
<polygon fill="black" stroke="black" points="137.55,-253.52 140.7,-263.63 144.55,-253.76 137.55,-253.52"/>
<text text-anchor="middle" x="165.91" y="-189.95" font-family="Times,serif" font-size="14.00"> south</text>
</g>
<!-- east_west_passageway&#45;&gt;troll_room -->
<g id="edge64" class="edge">
<title>east_west_passageway&#45;&gt;troll_room</title>
<path fill="none" stroke="black" d="M464.6,-390.38C459.92,-400.95 453.01,-414.32 444.41,-424.5 440.62,-428.98 436.16,-433.25 431.54,-437.15"/>
<polygon fill="black" stroke="black" points="429.46,-434.33 423.76,-443.26 433.78,-439.84 429.46,-434.33"/>
<text text-anchor="middle" x="468.66" y="-411.2" font-family="Times,serif" font-size="14.00"> west</text>
</g>
<!-- round_room -->
<g id="node31" class="node">
<title>round_room</title>
<ellipse fill="none" stroke="black" cx="397.41" cy="-283.5" rx="56.98" ry="18"/>
<text text-anchor="middle" x="397.41" y="-278.45" font-family="Times,serif" font-size="14.00">round_room</text>
</g>
<!-- east_west_passageway&#45;&gt;round_room -->
<g id="edge65" class="edge">
<title>east_west_passageway&#45;&gt;round_room</title>
<path fill="none" stroke="black" d="M454.82,-353.79C449.56,-348.2 443.78,-341.91 438.66,-336 431.58,-327.82 424.1,-318.67 417.49,-310.37"/>
<polygon fill="black" stroke="black" points="420.35,-308.33 411.4,-302.65 414.85,-312.67 420.35,-308.33"/>
<text text-anchor="middle" x="451.78" y="-322.7" font-family="Times,serif" font-size="14.00"> east</text>
</g>
<!-- deep_ravine -->
<g id="node32" class="node">
<title>deep_ravine</title>
<ellipse fill="none" stroke="black" cx="528.41" cy="-283.5" rx="55.96" ry="18"/>
<text text-anchor="middle" x="528.41" y="-278.45" font-family="Times,serif" font-size="14.00">deep_ravine</text>
</g>
<!-- east_west_passageway&#45;&gt;deep_ravine -->
<g id="edge66" class="edge">
<title>east_west_passageway&#45;&gt;deep_ravine</title>
<path fill="none" stroke="black" d="M467.9,-353.68C466.67,-343.13 466.82,-329.76 472.66,-319.5 475.92,-313.77 480.54,-308.85 485.74,-304.66"/>
<polygon fill="black" stroke="black" points="487.45,-307.73 493.66,-299.15 483.45,-301.99 487.45,-307.73"/>
<text text-anchor="middle" x="489.28" y="-322.7" font-family="Times,serif" font-size="14.00"> down</text>
</g>
<!-- engraving_cave -->
<g id="node33" class="node">
<title>engraving_cave</title>
<ellipse fill="none" stroke="black" cx="430.41" cy="-195" rx="69.26" ry="18"/>
<text text-anchor="middle" x="430.41" y="-189.95" font-family="Times,serif" font-size="14.00">engraving_cave</text>
</g>
<!-- round_room&#45;&gt;engraving_cave -->
<g id="edge68" class="edge">
<title>round_room&#45;&gt;engraving_cave</title>
<path fill="none" stroke="black" d="M400.99,-265.48C403.39,-255.29 406.93,-242.18 411.41,-231 412.47,-228.36 413.68,-225.67 414.96,-223"/>
<polygon fill="black" stroke="black" points="417.92,-224.89 419.42,-214.41 411.71,-221.67 417.92,-224.89"/>
</g>
<!-- deep_ravine&#45;&gt;east_west_passageway -->
<g id="edge67" class="edge">
<title>deep_ravine&#45;&gt;east_west_passageway</title>
<path fill="none" stroke="black" d="M522.99,-301.56C519.22,-312.01 513.6,-325.37 506.41,-336 504.18,-339.3 501.6,-342.56 498.88,-345.68"/>
<polygon fill="black" stroke="black" points="496.37,-343.24 492.05,-352.92 501.46,-348.05 496.37,-343.24"/>
<text text-anchor="middle" x="530.91" y="-322.7" font-family="Times,serif" font-size="14.00"> south</text>
</g>
<!-- engraving_cave&#45;&gt;round_room -->
<g id="edge69" class="edge">
<title>engraving_cave&#45;&gt;round_room</title>
<path fill="none" stroke="black" d="M423.79,-213.35C419.28,-225.18 413.2,-241.11 408.02,-254.69"/>
<polygon fill="black" stroke="black" points="404.76,-253.41 404.47,-264 411.3,-255.9 404.76,-253.41"/>
<text text-anchor="middle" x="433.53" y="-234.2" font-family="Times,serif" font-size="14.00"> north</text>
</g>
<!-- riddle_room -->
<g id="node34" class="node">
<title>riddle_room</title>
<ellipse fill="none" stroke="black" cx="507.41" cy="-106.5" rx="56.98" ry="18"/>
<text text-anchor="middle" x="507.41" y="-101.45" font-family="Times,serif" font-size="14.00">riddle_room</text>
</g>
<!-- engraving_cave&#45;&gt;riddle_room -->
<g id="edge70" class="edge">
<title>engraving_cave&#45;&gt;riddle_room</title>
<path fill="none" stroke="black" d="M426.41,-176.89C424.88,-166.17 424.85,-152.53 431.41,-142.5 436.73,-134.37 444.45,-128.11 452.96,-123.28"/>
<polygon fill="black" stroke="black" points="454.41,-126.46 461.85,-118.92 451.33,-120.18 454.41,-126.46"/>
<text text-anchor="middle" x="458.41" y="-145.7" font-family="Times,serif" font-size="14.00"> southeast</text>
</g>
<!-- riddle_room&#45;&gt;engraving_cave -->
<g id="edge71" class="edge">
<title>riddle_room&#45;&gt;engraving_cave</title>
<path fill="none" stroke="black" d="M502.93,-124.67C499.47,-135.42 493.84,-149.07 485.41,-159 481.34,-163.8 476.43,-168.17 471.26,-172.06"/>
<polygon fill="black" stroke="black" points="469.29,-169.16 463.02,-177.7 473.25,-174.94 469.29,-169.16"/>
<text text-anchor="middle" x="511.28" y="-145.7" font-family="Times,serif" font-size="14.00"> down</text>
</g>
<!-- ridde_room -->
<g id="node35" class="node">
<title>ridde_room</title>
<ellipse fill="none" stroke="black" cx="656.41" cy="-283.5" rx="54.42" ry="18"/>
<text text-anchor="middle" x="656.41" y="-278.45" font-family="Times,serif" font-size="14.00">ridde_room</text>
</g>
<!-- pearl_room -->
<g id="node36" class="node">
<title>pearl_room</title>
<ellipse fill="none" stroke="black" cx="651.41" cy="-195" rx="53.91" ry="18"/>
<text text-anchor="middle" x="651.41" y="-189.95" font-family="Times,serif" font-size="14.00">pearl_room</text>
</g>
<!-- ridde_room&#45;&gt;pearl_room -->
<g id="edge72" class="edge">
<title>ridde_room&#45;&gt;pearl_room</title>
<path fill="none" stroke="black" d="M655.42,-265.41C654.75,-253.76 653.84,-238.05 653.06,-224.52"/>
<polygon fill="black" stroke="black" points="656.57,-224.64 652.5,-214.86 649.58,-225.05 656.57,-224.64"/>
<text text-anchor="middle" x="665.78" y="-234.2" font-family="Times,serif" font-size="14.00"> east</text>
</g>
<!-- pearl_room&#45;&gt;riddle_room -->
<g id="edge73" class="edge">
<title>pearl_room&#45;&gt;riddle_room</title>
<path fill="none" stroke="black" d="M626,-178.73C602.9,-164.86 568.6,-144.26 542.82,-128.77"/>
<polygon fill="black" stroke="black" points="544.73,-125.83 534.35,-123.68 541.12,-131.83 544.73,-125.83"/>
<text text-anchor="middle" x="605.66" y="-145.7" font-family="Times,serif" font-size="14.00"> west</text>
</g>
<!-- circular_room -->
<g id="node37" class="node">
<title>circular_room</title>
<ellipse fill="none" stroke="black" cx="655.41" cy="-106.5" rx="63.63" ry="18"/>
<text text-anchor="middle" x="655.41" y="-101.45" font-family="Times,serif" font-size="14.00">circular_room</text>
</g>
<!-- pearl_room&#45;&gt;circular_room -->
<g id="edge74" class="edge">
<title>pearl_room&#45;&gt;circular_room</title>
<path fill="none" stroke="black" d="M647.98,-176.81C646.44,-166.78 645.26,-153.91 646.66,-142.5 646.93,-140.31 647.29,-138.06 647.71,-135.8"/>
<polygon fill="black" stroke="black" points="651.08,-136.79 649.86,-126.27 644.25,-135.25 651.08,-136.79"/>
<text text-anchor="middle" x="658.78" y="-145.7" font-family="Times,serif" font-size="14.00"> east</text>
</g>
<!-- circular_room&#45;&gt;pearl_room -->
<g id="edge75" class="edge">
<title>circular_room&#45;&gt;pearl_room</title>
<path fill="none" stroke="black" d="M665.72,-124.56C670.49,-134.54 674.49,-147.42 671.41,-159 670.71,-161.63 669.77,-164.26 668.66,-166.84"/>
<polygon fill="black" stroke="black" points="665.61,-165.13 664.17,-175.63 671.84,-168.32 665.61,-165.13"/>
<text text-anchor="middle" x="686.66" y="-145.7" font-family="Times,serif" font-size="14.00"> west</text>
</g>
</g>
</svg>
