<?xml version="1.0" encoding="UTF-8" standalone="no"?>
<!DOCTYPE svg PUBLIC "-//W3C//DTD SVG 1.1//EN"
 "http://www.w3.org/Graphics/SVG/1.1/DTD/svg11.dtd">
<!-- Generated by graphviz version 9.0.0 (20230911.1827)
 -->
<!-- Title: zork Pages: 1 -->
<svg width="823pt" height="1549pt"
 viewBox="0.00 0.00 822.86 1548.50" xmlns="http://www.w3.org/2000/svg" xmlns:xlink="http://www.w3.org/1999/xlink">
<g id="graph0" class="graph" transform="scale(1 1) rotate(0) translate(4 1544.5)">
<title>zork</title>
<polygon fill="white" stroke="none" points="-4,4 -4,-1544.5 818.86,-1544.5 818.86,4 -4,4"/>
<!-- west_of_house -->
<g id="node1" class="node">
<title>west_of_house</title>
<ellipse fill="none" stroke="black" cx="376.9" cy="-1522.5" rx="66.19" ry="18"/>
<text text-anchor="middle" x="376.9" y="-1517.45" font-family="Times,serif" font-size="14.00">west_of_house</text>
</g>
<!-- north_of_house -->
<g id="node2" class="node">
<title>north_of_house</title>
<ellipse fill="none" stroke="black" cx="321.9" cy="-1434" rx="68.75" ry="18"/>
<text text-anchor="middle" x="321.9" y="-1428.95" font-family="Times,serif" font-size="14.00">north_of_house</text>
</g>
<!-- west_of_house&#45;&gt;north_of_house -->
<g id="edge1" class="edge">
<title>west_of_house&#45;&gt;north_of_house</title>
<path fill="none" stroke="black" d="M342.81,-1506.67C334.81,-1501.49 327.27,-1494.83 322.65,-1486.5 318.85,-1479.64 317.57,-1471.45 317.52,-1463.63"/>
<polygon fill="black" stroke="black" points="321,-1463.99 318.14,-1453.79 314.02,-1463.55 321,-1463.99"/>
<text text-anchor="middle" x="339.03" y="-1473.2" font-family="Times,serif" font-size="14.00"> north</text>
</g>
<!-- south_of_house -->
<g id="node3" class="node">
<title>south_of_house</title>
<ellipse fill="none" stroke="black" cx="482.9" cy="-1080" rx="69.26" ry="18"/>
<text text-anchor="middle" x="482.9" y="-1074.95" font-family="Times,serif" font-size="14.00">south_of_house</text>
</g>
<!-- west_of_house&#45;&gt;south_of_house -->
<g id="edge2" class="edge">
<title>west_of_house&#45;&gt;south_of_house</title>
<path fill="none" stroke="black" d="M393.55,-1504.91C408.1,-1488.6 426.9,-1462.23 426.9,-1435 426.9,-1435 426.9,-1435 426.9,-1167.5 426.9,-1143.95 441.71,-1121.75 456.09,-1105.74"/>
<polygon fill="black" stroke="black" points="458.53,-1108.26 462.9,-1098.6 453.46,-1103.42 458.53,-1108.26"/>
<text text-anchor="middle" x="443.4" y="-1296.2" font-family="Times,serif" font-size="14.00"> south</text>
</g>
<!-- forest_i -->
<g id="node4" class="node">
<title>forest_i</title>
<ellipse fill="none" stroke="black" cx="145.9" cy="-1434" rx="39.07" ry="18"/>
<text text-anchor="middle" x="145.9" y="-1428.95" font-family="Times,serif" font-size="14.00">forest_i</text>
</g>
<!-- west_of_house&#45;&gt;forest_i -->
<g id="edge3" class="edge">
<title>west_of_house&#45;&gt;forest_i</title>
<path fill="none" stroke="black" d="M339.02,-1507.31C296.86,-1491.53 229.04,-1466.13 186.01,-1450.02"/>
<polygon fill="black" stroke="black" points="187.38,-1446.79 176.79,-1446.56 184.92,-1453.35 187.38,-1446.79"/>
<text text-anchor="middle" x="297.15" y="-1473.2" font-family="Times,serif" font-size="14.00"> west</text>
</g>
<!-- north_of_house&#45;&gt;west_of_house -->
<g id="edge5" class="edge">
<title>north_of_house&#45;&gt;west_of_house</title>
<path fill="none" stroke="black" d="M340,-1451.77C345.25,-1457.24 350.69,-1463.57 354.9,-1470 359.74,-1477.38 363.91,-1486 367.28,-1494.05"/>
<polygon fill="black" stroke="black" points="363.92,-1495.06 370.82,-1503.1 370.44,-1492.52 363.92,-1495.06"/>
<text text-anchor="middle" x="377.15" y="-1473.2" font-family="Times,serif" font-size="14.00"> west</text>
</g>
<!-- behind_house -->
<g id="node5" class="node">
<title>behind_house</title>
<ellipse fill="none" stroke="black" cx="387.9" cy="-991.5" rx="62.1" ry="18"/>
<text text-anchor="middle" x="387.9" y="-986.45" font-family="Times,serif" font-size="14.00">behind_house</text>
</g>
<!-- north_of_house&#45;&gt;behind_house -->
<g id="edge4" class="edge">
<title>north_of_house&#45;&gt;behind_house</title>
<path fill="none" stroke="black" d="M343.93,-1416.75C362.44,-1401.06 385.9,-1375.46 385.9,-1346.5 385.9,-1346.5 385.9,-1346.5 385.9,-1079 385.9,-1059.66 386.41,-1037.89 386.91,-1021.03"/>
<polygon fill="black" stroke="black" points="390.4,-1021.35 387.22,-1011.24 383.41,-1021.13 390.4,-1021.35"/>
<text text-anchor="middle" x="398.28" y="-1207.7" font-family="Times,serif" font-size="14.00"> east</text>
</g>
<!-- forest_ii -->
<g id="node6" class="node">
<title>forest_ii</title>
<ellipse fill="none" stroke="black" cx="163.9" cy="-1345.5" rx="41.63" ry="18"/>
<text text-anchor="middle" x="163.9" y="-1340.45" font-family="Times,serif" font-size="14.00">forest_ii</text>
</g>
<!-- north_of_house&#45;&gt;forest_ii -->
<g id="edge6" class="edge">
<title>north_of_house&#45;&gt;forest_ii</title>
<path fill="none" stroke="black" d="M299.67,-1416.56C284.64,-1405.84 264.11,-1391.96 244.9,-1381.5 232.29,-1374.63 218.05,-1368.1 205.07,-1362.58"/>
<polygon fill="black" stroke="black" points="206.5,-1359.38 195.92,-1358.78 203.81,-1365.85 206.5,-1359.38"/>
<text text-anchor="middle" x="288.03" y="-1384.7" font-family="Times,serif" font-size="14.00"> north</text>
</g>
<!-- south_of_house&#45;&gt;west_of_house -->
<g id="edge10" class="edge">
<title>south_of_house&#45;&gt;west_of_house</title>
<path fill="none" stroke="black" d="M482.9,-1098.23C482.9,-1115.69 482.9,-1143.47 482.9,-1167.5 482.9,-1435 482.9,-1435 482.9,-1435 482.9,-1466.73 454.04,-1488.9 426.43,-1502.85"/>
<polygon fill="black" stroke="black" points="425.28,-1499.52 417.74,-1506.97 428.28,-1505.85 425.28,-1499.52"/>
<text text-anchor="middle" x="497.15" y="-1296.2" font-family="Times,serif" font-size="14.00"> west</text>
</g>
<!-- south_of_house&#45;&gt;behind_house -->
<g id="edge11" class="edge">
<title>south_of_house&#45;&gt;behind_house</title>
<path fill="none" stroke="black" d="M453.71,-1063.39C444.71,-1057.89 435.09,-1051.24 427.15,-1044 419.07,-1036.62 411.46,-1027.4 405.13,-1018.82"/>
<polygon fill="black" stroke="black" points="408.07,-1016.91 399.44,-1010.76 402.35,-1020.95 408.07,-1016.91"/>
<text text-anchor="middle" x="439.28" y="-1030.7" font-family="Times,serif" font-size="14.00"> east</text>
</g>
<!-- forest_i&#45;&gt;forest_i -->
<g id="edge12" class="edge">
<title>forest_i&#45;&gt;forest_i</title>
<path fill="none" stroke="black" d="M181.01,-1442.29C193.16,-1442.38 202.97,-1439.62 202.97,-1434 202.97,-1430.31 198.75,-1427.86 192.41,-1426.63"/>
<polygon fill="black" stroke="black" points="192.77,-1423.14 182.52,-1425.83 192.21,-1430.12 192.77,-1423.14"/>
<text text-anchor="middle" x="219.1" y="-1428.95" font-family="Times,serif" font-size="14.00"> north</text>
</g>
<!-- forest_i&#45;&gt;forest_ii -->
<g id="edge13" class="edge">
<title>forest_i&#45;&gt;forest_ii</title>
<path fill="none" stroke="black" d="M149.46,-1415.91C151.88,-1404.26 155.15,-1388.55 157.97,-1375.02"/>
<polygon fill="black" stroke="black" points="161.37,-1375.84 159.98,-1365.33 154.52,-1374.41 161.37,-1375.84"/>
<text text-anchor="middle" x="169.28" y="-1384.7" font-family="Times,serif" font-size="14.00"> east</text>
</g>
<!-- forest_iii -->
<g id="node8" class="node">
<title>forest_iii</title>
<ellipse fill="none" stroke="black" cx="155.9" cy="-1168.5" rx="44.19" ry="18"/>
<text text-anchor="middle" x="155.9" y="-1163.45" font-family="Times,serif" font-size="14.00">forest_iii</text>
</g>
<!-- forest_i&#45;&gt;forest_iii -->
<g id="edge14" class="edge">
<title>forest_i&#45;&gt;forest_iii</title>
<path fill="none" stroke="black" d="M123.07,-1419.18C74.17,-1387.79 -32.82,-1308.45 10.9,-1239 31.42,-1206.42 71.91,-1188.77 104.9,-1179.43"/>
<polygon fill="black" stroke="black" points="105.52,-1182.88 114.3,-1176.95 103.74,-1176.11 105.52,-1182.88"/>
<text text-anchor="middle" x="25.4" y="-1296.2" font-family="Times,serif" font-size="14.00"> south</text>
</g>
<!-- behind_house&#45;&gt;north_of_house -->
<g id="edge8" class="edge">
<title>behind_house&#45;&gt;north_of_house</title>
<path fill="none" stroke="black" d="M374.99,-1009.31C358.43,-1032.04 330.57,-1074.52 319.9,-1116 293.28,-1219.54 308.21,-1348.46 316.96,-1404.64"/>
<polygon fill="black" stroke="black" points="313.47,-1404.98 318.53,-1414.29 320.38,-1403.86 313.47,-1404.98"/>
<text text-anchor="middle" x="323.03" y="-1207.7" font-family="Times,serif" font-size="14.00"> north</text>
</g>
<!-- behind_house&#45;&gt;south_of_house -->
<g id="edge7" class="edge">
<title>behind_house&#45;&gt;south_of_house</title>
<path fill="none" stroke="black" d="M424.84,-1006.42C435.77,-1011.8 447.14,-1018.8 455.9,-1027.5 462.76,-1034.3 468.26,-1043.21 472.46,-1051.7"/>
<polygon fill="black" stroke="black" points="469.19,-1052.96 476.47,-1060.65 475.58,-1050.1 469.19,-1052.96"/>
<text text-anchor="middle" x="484.4" y="-1030.7" font-family="Times,serif" font-size="14.00"> south</text>
</g>
<!-- kitchen -->
<g id="node7" class="node">
<title>kitchen</title>
<ellipse fill="none" stroke="black" cx="431.9" cy="-903" rx="38.04" ry="18"/>
<text text-anchor="middle" x="431.9" y="-897.95" font-family="Times,serif" font-size="14.00">kitchen</text>
</g>
<!-- behind_house&#45;&gt;kitchen -->
<g id="edge9" class="edge">
<title>behind_house&#45;&gt;kitchen</title>
<path fill="none" stroke="black" d="M384.41,-973.44C383.11,-962.99 383.02,-949.62 388.15,-939 390.85,-933.42 394.92,-928.45 399.51,-924.12"/>
<polygon fill="black" stroke="black" points="401.45,-927.06 406.97,-918.02 397.02,-921.64 401.45,-927.06"/>
<text text-anchor="middle" x="400.28" y="-942.2" font-family="Times,serif" font-size="14.00"> east</text>
</g>
<!-- forest_ii&#45;&gt;north_of_house -->
<g id="edge16" class="edge">
<title>forest_ii&#45;&gt;north_of_house</title>
<path fill="none" stroke="black" d="M175.79,-1362.99C184.72,-1374.29 197.86,-1388.83 212.4,-1398 226.4,-1406.82 242.81,-1413.6 258.6,-1418.73"/>
<polygon fill="black" stroke="black" points="257.36,-1422.01 267.95,-1421.58 259.41,-1415.32 257.36,-1422.01"/>
<text text-anchor="middle" x="227.15" y="-1384.7" font-family="Times,serif" font-size="14.00"> west</text>
</g>
<!-- up_a_tree -->
<g id="node9" class="node">
<title>up_a_tree</title>
<ellipse fill="none" stroke="black" cx="66.9" cy="-1257" rx="47.26" ry="18"/>
<text text-anchor="middle" x="66.9" y="-1251.95" font-family="Times,serif" font-size="14.00">up_a_tree</text>
</g>
<!-- forest_ii&#45;&gt;up_a_tree -->
<g id="edge15" class="edge">
<title>forest_ii&#45;&gt;up_a_tree</title>
<path fill="none" stroke="black" d="M146.56,-1329.04C131.71,-1315.79 110.11,-1296.53 93.14,-1281.4"/>
<polygon fill="black" stroke="black" points="95.67,-1278.97 85.88,-1274.92 91.01,-1284.19 95.67,-1278.97"/>
<text text-anchor="middle" x="133.53" y="-1296.2" font-family="Times,serif" font-size="14.00"> up</text>
</g>
<!-- clearing -->
<g id="node10" class="node">
<title>clearing</title>
<ellipse fill="none" stroke="black" cx="172.9" cy="-1257" rx="40.6" ry="18"/>
<text text-anchor="middle" x="172.9" y="-1251.95" font-family="Times,serif" font-size="14.00">clearing</text>
</g>
<!-- forest_ii&#45;&gt;clearing -->
<g id="edge17" class="edge">
<title>forest_ii&#45;&gt;clearing</title>
<path fill="none" stroke="black" d="M163.36,-1327.27C163.26,-1317.24 163.51,-1304.36 164.9,-1293 165.17,-1290.82 165.52,-1288.58 165.91,-1286.33"/>
<polygon fill="black" stroke="black" points="169.28,-1287.31 167.9,-1276.8 162.43,-1285.88 169.28,-1287.31"/>
<text text-anchor="middle" x="181.4" y="-1296.2" font-family="Times,serif" font-size="14.00"> south</text>
</g>
<!-- kitchen&#45;&gt;behind_house -->
<g id="edge32" class="edge">
<title>kitchen&#45;&gt;behind_house</title>
<path fill="none" stroke="black" d="M426.84,-921.19C423.51,-931.44 418.7,-944.55 412.9,-955.5 411.36,-958.41 409.61,-961.35 407.77,-964.23"/>
<polygon fill="black" stroke="black" points="404.94,-962.17 402.18,-972.4 410.72,-966.13 404.94,-962.17"/>
<text text-anchor="middle" x="434.15" y="-942.2" font-family="Times,serif" font-size="14.00"> west</text>
</g>
<!-- living_room -->
<g id="node15" class="node">
<title>living_room</title>
<ellipse fill="none" stroke="black" cx="376.9" cy="-814.5" rx="56.98" ry="18"/>
<text text-anchor="middle" x="376.9" y="-809.45" font-family="Times,serif" font-size="14.00">living_room</text>
</g>
<!-- kitchen&#45;&gt;living_room -->
<g id="edge33" class="edge">
<title>kitchen&#45;&gt;living_room</title>
<path fill="none" stroke="black" d="M402.28,-891.46C384.44,-884.44 364.23,-875.07 359.15,-867 354.41,-859.46 355.56,-850.49 358.92,-842.17"/>
<polygon fill="black" stroke="black" points="361.92,-843.97 363.37,-833.48 355.69,-840.78 361.92,-843.97"/>
<text text-anchor="middle" x="371.28" y="-853.7" font-family="Times,serif" font-size="14.00"> east</text>
</g>
<!-- attic -->
<g id="node16" class="node">
<title>attic</title>
<ellipse fill="none" stroke="black" cx="487.9" cy="-814.5" rx="27" ry="18"/>
<text text-anchor="middle" x="487.9" y="-809.45" font-family="Times,serif" font-size="14.00">attic</text>
</g>
<!-- kitchen&#45;&gt;attic -->
<g id="edge34" class="edge">
<title>kitchen&#45;&gt;attic</title>
<path fill="none" stroke="black" d="M439.46,-885.25C444.4,-874.91 451.28,-861.57 458.65,-850.5 461.2,-846.68 464.09,-842.79 467.04,-839.07"/>
<polygon fill="black" stroke="black" points="469.68,-841.37 473.37,-831.44 464.29,-836.9 469.68,-841.37"/>
<text text-anchor="middle" x="466.53" y="-853.7" font-family="Times,serif" font-size="14.00"> up</text>
</g>
<!-- forest_iii&#45;&gt;south_of_house -->
<g id="edge19" class="edge">
<title>forest_iii&#45;&gt;south_of_house</title>
<path fill="none" stroke="black" d="M192.15,-1157.91C248.46,-1143.02 357.48,-1114.18 424.85,-1096.36"/>
<polygon fill="black" stroke="black" points="425.46,-1099.82 434.23,-1093.88 423.67,-1093.05 425.46,-1099.82"/>
<text text-anchor="middle" x="365.03" y="-1119.2" font-family="Times,serif" font-size="14.00"> north</text>
</g>
<!-- forest_iii&#45;&gt;clearing -->
<g id="edge20" class="edge">
<title>forest_iii&#45;&gt;clearing</title>
<path fill="none" stroke="black" d="M168.35,-1186.1C171.82,-1191.66 175.13,-1198.08 176.9,-1204.5 178.95,-1211.87 179.18,-1220.05 178.59,-1227.68"/>
<polygon fill="black" stroke="black" points="175.13,-1227.15 177.31,-1237.52 182.07,-1228.05 175.13,-1227.15"/>
<text text-anchor="middle" x="191.28" y="-1207.7" font-family="Times,serif" font-size="14.00"> east</text>
</g>
<!-- forest_iv -->
<g id="node11" class="node">
<title>forest_iv</title>
<ellipse fill="none" stroke="black" cx="167.9" cy="-1080" rx="43.67" ry="18"/>
<text text-anchor="middle" x="167.9" y="-1074.95" font-family="Times,serif" font-size="14.00">forest_iv</text>
</g>
<!-- forest_iii&#45;&gt;forest_iv -->
<g id="edge21" class="edge">
<title>forest_iii&#45;&gt;forest_iv</title>
<path fill="none" stroke="black" d="M153.28,-1150.18C152.24,-1140.12 151.74,-1127.25 153.9,-1116 154.36,-1113.64 154.97,-1111.24 155.69,-1108.85"/>
<polygon fill="black" stroke="black" points="158.97,-1110.07 159.06,-1099.48 152.38,-1107.7 158.97,-1110.07"/>
<text text-anchor="middle" x="170.4" y="-1119.2" font-family="Times,serif" font-size="14.00"> south</text>
</g>
<!-- up_a_tree&#45;&gt;forest_ii -->
<g id="edge18" class="edge">
<title>up_a_tree&#45;&gt;forest_ii</title>
<path fill="none" stroke="black" d="M63.13,-1275.34C61.8,-1286.16 62.09,-1299.81 69.15,-1309.5 79.58,-1323.79 96.51,-1332.26 113.19,-1337.27"/>
<polygon fill="black" stroke="black" points="112.02,-1340.58 122.58,-1339.7 113.78,-1333.8 112.02,-1340.58"/>
<text text-anchor="middle" x="86.78" y="-1296.2" font-family="Times,serif" font-size="14.00"> down</text>
</g>
<!-- clearing&#45;&gt;forest_ii -->
<g id="edge23" class="edge">
<title>clearing&#45;&gt;forest_ii</title>
<path fill="none" stroke="black" d="M188.29,-1273.99C196.04,-1284.03 202.84,-1297.34 197.9,-1309.5 196.23,-1313.62 193.82,-1317.52 191.03,-1321.12"/>
<polygon fill="black" stroke="black" points="188.67,-1318.51 184.58,-1328.28 193.87,-1323.2 188.67,-1318.51"/>
<text text-anchor="middle" x="214.15" y="-1296.2" font-family="Times,serif" font-size="14.00"> west</text>
</g>
<!-- clearing&#45;&gt;forest_iii -->
<g id="edge24" class="edge">
<title>clearing&#45;&gt;forest_iii</title>
<path fill="none" stroke="black" d="M153.81,-1240.81C148.24,-1235.24 142.86,-1228.45 139.9,-1221 136.77,-1213.1 137.87,-1204.33 140.59,-1196.3"/>
<polygon fill="black" stroke="black" points="143.71,-1197.92 144.47,-1187.35 137.28,-1195.13 143.71,-1197.92"/>
<text text-anchor="middle" x="156.4" y="-1207.7" font-family="Times,serif" font-size="14.00"> south</text>
</g>
<!-- clearing&#45;&gt;clearing -->
<g id="edge22" class="edge">
<title>clearing&#45;&gt;clearing</title>
<path fill="none" stroke="black" d="M209.53,-1265.3C221.74,-1265.3 231.51,-1262.53 231.51,-1257 231.51,-1253.37 227.3,-1250.93 220.96,-1249.68"/>
<polygon fill="black" stroke="black" points="221.3,-1246.2 211.04,-1248.83 220.7,-1253.17 221.3,-1246.2"/>
<text text-anchor="middle" x="261.88" y="-1251.95" font-family="Times,serif" font-size="14.00"> north, east</text>
</g>
<!-- forest_iv&#45;&gt;forest_iii -->
<g id="edge26" class="edge">
<title>forest_iv&#45;&gt;forest_iii</title>
<path fill="none" stroke="black" d="M180.37,-1097.73C186.33,-1107.82 191.3,-1120.92 186.9,-1132.5 185.51,-1136.18 183.53,-1139.72 181.24,-1143.04"/>
<polygon fill="black" stroke="black" points="178.71,-1140.61 175.14,-1150.59 184.15,-1145.01 178.71,-1140.61"/>
<text text-anchor="middle" x="203.15" y="-1119.2" font-family="Times,serif" font-size="14.00"> west</text>
</g>
<!-- canyon_view -->
<g id="node12" class="node">
<title>canyon_view</title>
<ellipse fill="none" stroke="black" cx="184.9" cy="-903" rx="60.05" ry="18"/>
<text text-anchor="middle" x="184.9" y="-897.95" font-family="Times,serif" font-size="14.00">canyon_view</text>
</g>
<!-- forest_iv&#45;&gt;canyon_view -->
<g id="edge25" class="edge">
<title>forest_iv&#45;&gt;canyon_view</title>
<path fill="none" stroke="black" d="M152.07,-1062.75C134.06,-1042.2 108.66,-1005.61 121.15,-973.5 128.07,-955.73 141.89,-939.74 154.9,-927.59"/>
<polygon fill="black" stroke="black" points="156.96,-930.44 162.12,-921.19 152.32,-925.2 156.96,-930.44"/>
<text text-anchor="middle" x="134.28" y="-986.45" font-family="Times,serif" font-size="14.00"> east</text>
</g>
<!-- forest_v -->
<g id="node13" class="node">
<title>forest_v</title>
<ellipse fill="none" stroke="black" cx="259.9" cy="-991.5" rx="41.12" ry="18"/>
<text text-anchor="middle" x="259.9" y="-986.45" font-family="Times,serif" font-size="14.00">forest_v</text>
</g>
<!-- forest_iv&#45;&gt;forest_v -->
<g id="edge27" class="edge">
<title>forest_iv&#45;&gt;forest_v</title>
<path fill="none" stroke="black" d="M184.78,-1063.13C198.78,-1049.97 218.91,-1031.04 234.81,-1016.1"/>
<polygon fill="black" stroke="black" points="237.15,-1018.7 242.03,-1009.3 232.35,-1013.6 237.15,-1018.7"/>
<text text-anchor="middle" x="239.03" y="-1030.7" font-family="Times,serif" font-size="14.00"> north</text>
</g>
<!-- canyon_view&#45;&gt;forest_iv -->
<g id="edge28" class="edge">
<title>canyon_view&#45;&gt;forest_iv</title>
<path fill="none" stroke="black" d="M182.76,-921.41C181.06,-935.46 178.68,-955.73 176.9,-973.5 174.3,-999.49 171.81,-1029.14 170.12,-1050.37"/>
<polygon fill="black" stroke="black" points="166.63,-1050.06 169.33,-1060.3 173.61,-1050.61 166.63,-1050.06"/>
<text text-anchor="middle" x="193.4" y="-986.45" font-family="Times,serif" font-size="14.00"> south</text>
</g>
<!-- canyon_view&#45;&gt;forest_v -->
<g id="edge29" class="edge">
<title>canyon_view&#45;&gt;forest_v</title>
<path fill="none" stroke="black" d="M187.65,-921.21C190.06,-931.98 194.49,-945.63 202.4,-955.5 207.63,-962.02 214.42,-967.63 221.5,-972.32"/>
<polygon fill="black" stroke="black" points="219.53,-975.23 229.91,-977.38 223.14,-969.23 219.53,-975.23"/>
<text text-anchor="middle" x="217.15" y="-942.2" font-family="Times,serif" font-size="14.00"> west</text>
</g>
<!-- forest_v&#45;&gt;canyon_view -->
<g id="edge30" class="edge">
<title>forest_v&#45;&gt;canyon_view</title>
<path fill="none" stroke="black" d="M252.58,-973.62C247.46,-962.99 239.93,-949.37 230.9,-939 227.13,-934.67 222.74,-930.52 218.2,-926.69"/>
<polygon fill="black" stroke="black" points="220.62,-924.14 210.6,-920.7 216.29,-929.64 220.62,-924.14"/>
<text text-anchor="middle" x="269.9" y="-942.2" font-family="Times,serif" font-size="14.00"> southeast</text>
</g>
<!-- forest_vi -->
<g id="node14" class="node">
<title>forest_vi</title>
<ellipse fill="none" stroke="black" cx="329.9" cy="-903" rx="43.67" ry="18"/>
<text text-anchor="middle" x="329.9" y="-897.95" font-family="Times,serif" font-size="14.00">forest_vi</text>
</g>
<!-- forest_v&#45;&gt;forest_vi -->
<g id="edge31" class="edge">
<title>forest_v&#45;&gt;forest_vi</title>
<path fill="none" stroke="black" d="M284,-976.68C292.4,-970.96 301.35,-963.73 307.9,-955.5 313.48,-948.49 317.89,-939.86 321.26,-931.68"/>
<polygon fill="black" stroke="black" points="324.5,-933.01 324.68,-922.42 317.93,-930.58 324.5,-933.01"/>
<text text-anchor="middle" x="334.4" y="-942.2" font-family="Times,serif" font-size="14.00"> south</text>
</g>
<!-- living_room&#45;&gt;kitchen -->
<g id="edge35" class="edge">
<title>living_room&#45;&gt;kitchen</title>
<path fill="none" stroke="black" d="M386.48,-832.4C392.33,-842.54 400.08,-855.65 407.4,-867 409.31,-869.96 411.35,-873.02 413.42,-876.05"/>
<polygon fill="black" stroke="black" points="410.49,-877.98 419.06,-884.2 416.24,-873.99 410.49,-877.98"/>
<text text-anchor="middle" x="421.15" y="-853.7" font-family="Times,serif" font-size="14.00"> west</text>
</g>
<!-- cellar -->
<g id="node17" class="node">
<title>cellar</title>
<ellipse fill="none" stroke="black" cx="376.9" cy="-726" rx="31.39" ry="18"/>
<text text-anchor="middle" x="376.9" y="-720.95" font-family="Times,serif" font-size="14.00">cellar</text>
</g>
<!-- living_room&#45;&gt;cellar -->
<g id="edge36" class="edge">
<title>living_room&#45;&gt;cellar</title>
<path fill="none" stroke="black" d="M376.9,-796.41C376.9,-784.76 376.9,-769.05 376.9,-755.52"/>
<polygon fill="black" stroke="black" points="380.4,-755.86 376.9,-745.86 373.4,-755.86 380.4,-755.86"/>
<text text-anchor="middle" x="393.78" y="-765.2" font-family="Times,serif" font-size="14.00"> down</text>
</g>
<!-- attic&#45;&gt;kitchen -->
<g id="edge37" class="edge">
<title>attic&#45;&gt;kitchen</title>
<path fill="none" stroke="black" d="M486.74,-832.83C485.37,-843.39 482.38,-856.76 475.9,-867 472.58,-872.26 468.18,-877.07 463.45,-881.33"/>
<polygon fill="black" stroke="black" points="461.49,-878.41 455.91,-887.42 465.89,-883.86 461.49,-878.41"/>
<text text-anchor="middle" x="498.78" y="-853.7" font-family="Times,serif" font-size="14.00"> down</text>
</g>
<!-- west_of_chasm -->
<g id="node18" class="node">
<title>west_of_chasm</title>
<ellipse fill="none" stroke="black" cx="376.9" cy="-637.5" rx="68.75" ry="18"/>
<text text-anchor="middle" x="376.9" y="-632.45" font-family="Times,serif" font-size="14.00">west_of_chasm</text>
</g>
<!-- cellar&#45;&gt;west_of_chasm -->
<g id="edge38" class="edge">
<title>cellar&#45;&gt;west_of_chasm</title>
<path fill="none" stroke="black" d="M361.8,-709.94C357.04,-704.19 352.38,-697.26 349.9,-690 347.54,-683.06 347.54,-680.44 349.9,-673.5 350.95,-670.44 352.38,-667.43 354.05,-664.55"/>
<polygon fill="black" stroke="black" points="356.75,-666.79 359.52,-656.57 350.98,-662.83 356.75,-666.79"/>
<text text-anchor="middle" x="366.4" y="-676.7" font-family="Times,serif" font-size="14.00"> south</text>
</g>
<!-- troll_room -->
<g id="node19" class="node">
<title>troll_room</title>
<ellipse fill="none" stroke="black" cx="514.9" cy="-460.5" rx="50.84" ry="18"/>
<text text-anchor="middle" x="514.9" y="-455.45" font-family="Times,serif" font-size="14.00">troll_room</text>
</g>
<!-- cellar&#45;&gt;troll_room -->
<g id="edge39" class="edge">
<title>cellar&#45;&gt;troll_room</title>
<path fill="none" stroke="black" d="M398.11,-712.47C434.9,-689.29 509.2,-635.74 535.9,-567 547.27,-537.75 540.69,-526.63 531.9,-496.5 531.15,-493.93 530.23,-491.31 529.2,-488.73"/>
<polygon fill="black" stroke="black" points="532.5,-487.54 525.2,-479.86 526.12,-490.42 532.5,-487.54"/>
<text text-anchor="middle" x="539.28" y="-588.2" font-family="Times,serif" font-size="14.00"> east</text>
</g>
<!-- west_of_chasm&#45;&gt;cellar -->
<g id="edge41" class="edge">
<title>west_of_chasm&#45;&gt;cellar</title>
<path fill="none" stroke="black" d="M380.48,-655.87C381.47,-661.47 382.41,-667.73 382.9,-673.5 383.53,-680.81 383.53,-682.69 382.9,-690 382.73,-692.08 382.49,-694.21 382.22,-696.36"/>
<polygon fill="black" stroke="black" points="378.78,-695.72 380.71,-706.13 385.69,-696.78 378.78,-695.72"/>
<text text-anchor="middle" x="397.15" y="-676.7" font-family="Times,serif" font-size="14.00"> west</text>
</g>
<!-- gallery -->
<g id="node20" class="node">
<title>gallery</title>
<ellipse fill="none" stroke="black" cx="290.9" cy="-372" rx="36.51" ry="18"/>
<text text-anchor="middle" x="290.9" y="-366.95" font-family="Times,serif" font-size="14.00">gallery</text>
</g>
<!-- west_of_chasm&#45;&gt;gallery -->
<g id="edge40" class="edge">
<title>west_of_chasm&#45;&gt;gallery</title>
<path fill="none" stroke="black" d="M362.22,-619.64C351.26,-606.22 336.71,-586.51 327.9,-567 301.11,-507.66 303.39,-488.92 293.9,-424.5 292.82,-417.15 292.12,-409.15 291.68,-401.69"/>
<polygon fill="black" stroke="black" points="295.18,-401.58 291.22,-391.76 288.18,-401.91 295.18,-401.58"/>
<text text-anchor="middle" x="324.4" y="-499.7" font-family="Times,serif" font-size="14.00"> south</text>
</g>
<!-- north_south_crawlway -->
<g id="node21" class="node">
<title>north_south_crawlway</title>
<ellipse fill="none" stroke="black" cx="431.9" cy="-549" rx="95.37" ry="18"/>
<text text-anchor="middle" x="431.9" y="-543.95" font-family="Times,serif" font-size="14.00">north_south_crawlway</text>
</g>
<!-- west_of_chasm&#45;&gt;north_south_crawlway -->
<g id="edge42" class="edge">
<title>west_of_chasm&#45;&gt;north_south_crawlway</title>
<path fill="none" stroke="black" d="M373.23,-619.22C371.91,-608.69 371.93,-595.32 377.65,-585 380.14,-580.52 383.46,-576.53 387.24,-572.99"/>
<polygon fill="black" stroke="black" points="389.27,-575.85 394.93,-566.89 384.92,-570.36 389.27,-575.85"/>
<text text-anchor="middle" x="393.03" y="-588.2" font-family="Times,serif" font-size="14.00"> north</text>
</g>
<!-- troll_room&#45;&gt;cellar -->
<g id="edge63" class="edge">
<title>troll_room&#45;&gt;cellar</title>
<path fill="none" stroke="black" d="M472.43,-470.74C448.29,-476.69 417.82,-485.39 391.9,-496.5 378.63,-502.19 376.59,-506.1 363.9,-513 348.19,-521.55 339.59,-517.46 327.9,-531 327.7,-531.24 281.95,-617.69 298.9,-655.5 308.55,-677 328.49,-694.58 345.8,-706.68"/>
<polygon fill="black" stroke="black" points="343.54,-709.38 353.8,-711.99 347.41,-703.55 343.54,-709.38"/>
<text text-anchor="middle" x="319.15" y="-588.2" font-family="Times,serif" font-size="14.00"> west</text>
</g>
<!-- troll_room&#45;&gt;north_south_crawlway -->
<g id="edge64" class="edge">
<title>troll_room&#45;&gt;north_south_crawlway</title>
<path fill="none" stroke="black" d="M489.06,-476.38C480.54,-482.02 471.4,-488.92 464.15,-496.5 457.21,-503.76 450.96,-512.75 445.86,-521.18"/>
<polygon fill="black" stroke="black" points="442.91,-519.29 440.99,-529.7 448.99,-522.76 442.91,-519.29"/>
<text text-anchor="middle" x="476.28" y="-499.7" font-family="Times,serif" font-size="14.00"> east</text>
</g>
<!-- maze -->
<g id="node29" class="node">
<title>maze</title>
<ellipse fill="none" stroke="black" cx="460.9" cy="-372" rx="30.88" ry="18"/>
<text text-anchor="middle" x="460.9" y="-366.95" font-family="Times,serif" font-size="14.00">maze</text>
</g>
<!-- troll_room&#45;&gt;maze -->
<g id="edge65" class="edge">
<title>troll_room&#45;&gt;maze</title>
<path fill="none" stroke="black" d="M494.56,-443.62C488.53,-438.1 482.36,-431.52 477.9,-424.5 473.43,-417.45 470.01,-409.11 467.46,-401.21"/>
<polygon fill="black" stroke="black" points="470.83,-400.28 464.73,-391.62 464.1,-402.19 470.83,-400.28"/>
<text text-anchor="middle" x="494.4" y="-411.2" font-family="Times,serif" font-size="14.00"> south</text>
</g>
<!-- east_west_passageway -->
<g id="node30" class="node">
<title>east_west_passageway</title>
<ellipse fill="none" stroke="black" cx="604.9" cy="-372" rx="95.37" ry="18"/>
<text text-anchor="middle" x="604.9" y="-366.95" font-family="Times,serif" font-size="14.00">east_west_passageway</text>
</g>
<!-- troll_room&#45;&gt;east_west_passageway -->
<g id="edge66" class="edge">
<title>troll_room&#45;&gt;east_west_passageway</title>
<path fill="none" stroke="black" d="M520.92,-442.15C525.35,-431.33 532.23,-417.67 541.65,-408 546.48,-403.04 552.16,-398.6 558.1,-394.68"/>
<polygon fill="black" stroke="black" points="559.54,-397.9 566.28,-389.72 555.91,-391.91 559.54,-397.9"/>
<text text-anchor="middle" x="557.03" y="-411.2" font-family="Times,serif" font-size="14.00"> north</text>
</g>
<!-- studio -->
<g id="node22" class="node">
<title>studio</title>
<ellipse fill="none" stroke="black" cx="361.9" cy="-460.5" rx="33.44" ry="18"/>
<text text-anchor="middle" x="361.9" y="-455.45" font-family="Times,serif" font-size="14.00">studio</text>
</g>
<!-- gallery&#45;&gt;studio -->
<g id="edge43" class="edge">
<title>gallery&#45;&gt;studio</title>
<path fill="none" stroke="black" d="M324.07,-379.82C339.58,-384.86 356.64,-393.46 365.9,-408 370.24,-414.81 371.03,-423.2 370.24,-431.22"/>
<polygon fill="black" stroke="black" points="366.81,-430.51 368.44,-440.98 373.69,-431.78 366.81,-430.51"/>
<text text-anchor="middle" x="386.4" y="-411.2" font-family="Times,serif" font-size="14.00"> south</text>
</g>
<!-- bank_entrance -->
<g id="node23" class="node">
<title>bank_entrance</title>
<ellipse fill="none" stroke="black" cx="238.9" cy="-283.5" rx="64.66" ry="18"/>
<text text-anchor="middle" x="238.9" y="-278.45" font-family="Times,serif" font-size="14.00">bank_entrance</text>
</g>
<!-- gallery&#45;&gt;bank_entrance -->
<g id="edge44" class="edge">
<title>gallery&#45;&gt;bank_entrance</title>
<path fill="none" stroke="black" d="M264.49,-359.11C255.2,-353.5 245.74,-345.85 240.4,-336 236.67,-329.11 235.31,-320.9 235.15,-313.08"/>
<polygon fill="black" stroke="black" points="238.64,-313.4 235.59,-303.25 231.64,-313.08 238.64,-313.4"/>
<text text-anchor="middle" x="255.15" y="-322.7" font-family="Times,serif" font-size="14.00"> west</text>
</g>
<!-- north_south_crawlway&#45;&gt;west_of_chasm -->
<g id="edge61" class="edge">
<title>north_south_crawlway&#45;&gt;west_of_chasm</title>
<path fill="none" stroke="black" d="M426.19,-567.46C422.39,-577.81 416.83,-590.93 409.9,-601.5 407.73,-604.81 405.23,-608.1 402.6,-611.26"/>
<polygon fill="black" stroke="black" points="400.09,-608.82 396.01,-618.6 405.3,-613.5 400.09,-608.82"/>
<text text-anchor="middle" x="434.03" y="-588.2" font-family="Times,serif" font-size="14.00"> north</text>
</g>
<!-- north_south_crawlway&#45;&gt;troll_room -->
<g id="edge62" class="edge">
<title>north_south_crawlway&#45;&gt;troll_room</title>
<path fill="none" stroke="black" d="M468.6,-532.03C477.39,-526.91 486.17,-520.57 492.9,-513 498.86,-506.31 503.37,-497.76 506.72,-489.56"/>
<polygon fill="black" stroke="black" points="509.98,-490.83 510.06,-480.23 503.39,-488.46 509.98,-490.83"/>
<text text-anchor="middle" x="515.28" y="-499.7" font-family="Times,serif" font-size="14.00"> east</text>
</g>
<!-- north_south_crawlway&#45;&gt;studio -->
<g id="edge60" class="edge">
<title>north_south_crawlway&#45;&gt;studio</title>
<path fill="none" stroke="black" d="M418.07,-530.91C407.75,-518.15 393.48,-500.52 381.91,-486.22"/>
<polygon fill="black" stroke="black" points="384.72,-484.14 375.71,-478.56 379.28,-488.54 384.72,-484.14"/>
<text text-anchor="middle" x="419.4" y="-499.7" font-family="Times,serif" font-size="14.00"> south</text>
</g>
<!-- studio&#45;&gt;gallery -->
<g id="edge58" class="edge">
<title>studio&#45;&gt;gallery</title>
<path fill="none" stroke="black" d="M335.78,-448.77C324.8,-443.05 312.77,-435 304.9,-424.5 299.9,-417.82 296.69,-409.47 294.62,-401.45"/>
<polygon fill="black" stroke="black" points="298.05,-400.76 292.64,-391.65 291.19,-402.15 298.05,-400.76"/>
<text text-anchor="middle" x="333.4" y="-411.2" font-family="Times,serif" font-size="14.00"> northwest</text>
</g>
<!-- studio&#45;&gt;north_south_crawlway -->
<g id="edge59" class="edge">
<title>studio&#45;&gt;north_south_crawlway</title>
<path fill="none" stroke="black" d="M355.05,-478.52C351.92,-489.21 350.18,-502.85 356.65,-513 360.28,-518.68 365.09,-523.45 370.53,-527.46"/>
<polygon fill="black" stroke="black" points="368.57,-530.37 378.91,-532.71 372.29,-524.43 368.57,-530.37"/>
<text text-anchor="middle" x="372.03" y="-499.7" font-family="Times,serif" font-size="14.00"> north</text>
</g>
<!-- bank_entrance&#45;&gt;gallery -->
<g id="edge45" class="edge">
<title>bank_entrance&#45;&gt;gallery</title>
<path fill="none" stroke="black" d="M254.97,-301.13C259.83,-306.69 264.93,-313.11 268.9,-319.5 273.56,-326.99 277.68,-335.65 281.06,-343.69"/>
<polygon fill="black" stroke="black" points="277.7,-344.71 284.63,-352.72 284.21,-342.13 277.7,-344.71"/>
<text text-anchor="middle" x="294.4" y="-322.7" font-family="Times,serif" font-size="14.00"> south</text>
</g>
<!-- east_teller_room -->
<g id="node24" class="node">
<title>east_teller_room</title>
<ellipse fill="none" stroke="black" cx="180.9" cy="-18" rx="73.36" ry="18"/>
<text text-anchor="middle" x="180.9" y="-12.95" font-family="Times,serif" font-size="14.00">east_teller_room</text>
</g>
<!-- bank_entrance&#45;&gt;east_teller_room -->
<g id="edge46" class="edge">
<title>bank_entrance&#45;&gt;east_teller_room</title>
<path fill="none" stroke="black" d="M271.64,-267.83C294.41,-256.05 323.82,-237.45 341.9,-213 384.57,-155.31 420.02,-105.35 369.9,-54 353.22,-36.9 287.39,-40.4 263.9,-36 258.27,-34.94 252.42,-33.82 246.56,-32.66"/>
<polygon fill="black" stroke="black" points="247.3,-29.24 236.8,-30.72 245.93,-36.1 247.3,-29.24"/>
<text text-anchor="middle" x="412.53" y="-145.7" font-family="Times,serif" font-size="14.00"> northeast</text>
</g>
<!-- west_teller_room -->
<g id="node25" class="node">
<title>west_teller_room</title>
<ellipse fill="none" stroke="black" cx="256.9" cy="-195" rx="75.92" ry="18"/>
<text text-anchor="middle" x="256.9" y="-189.95" font-family="Times,serif" font-size="14.00">west_teller_room</text>
</g>
<!-- bank_entrance&#45;&gt;west_teller_room -->
<g id="edge47" class="edge">
<title>bank_entrance&#45;&gt;west_teller_room</title>
<path fill="none" stroke="black" d="M214.42,-266.37C202.8,-256.6 192.84,-243.63 199.9,-231 202.74,-225.94 206.64,-221.52 211.08,-217.68"/>
<polygon fill="black" stroke="black" points="212.94,-220.65 218.93,-211.91 208.8,-215.01 212.94,-220.65"/>
<text text-anchor="middle" x="228.4" y="-234.2" font-family="Times,serif" font-size="14.00"> northwest</text>
</g>
<!-- east_teller_room&#45;&gt;bank_entrance -->
<g id="edge48" class="edge">
<title>east_teller_room&#45;&gt;bank_entrance</title>
<path fill="none" stroke="black" d="M133.34,-32.12C105.48,-42.52 72.58,-60.14 55.9,-88.5 47.79,-102.29 50.78,-109.34 55.9,-124.5 77.96,-189.67 94.98,-206.06 149.9,-247.5 159.85,-255 171.61,-261.12 183.27,-266.01"/>
<polygon fill="black" stroke="black" points="181.89,-269.23 192.48,-269.61 184.44,-262.71 181.89,-269.23"/>
<text text-anchor="middle" x="85.4" y="-145.7" font-family="Times,serif" font-size="14.00"> south</text>
</g>
<!-- safety_depository -->
<g id="node26" class="node">
<title>safety_depository</title>
<ellipse fill="none" stroke="black" cx="289.9" cy="-106.5" rx="76.43" ry="18"/>
<text text-anchor="middle" x="289.9" y="-101.45" font-family="Times,serif" font-size="14.00">safety_depository</text>
</g>
<!-- east_teller_room&#45;&gt;safety_depository -->
<g id="edge49" class="edge">
<title>east_teller_room&#45;&gt;safety_depository</title>
<path fill="none" stroke="black" d="M201.86,-35.63C218.35,-48.72 241.55,-67.13 260,-81.77"/>
<polygon fill="black" stroke="black" points="257.69,-84.41 267.7,-87.88 262.04,-78.92 257.69,-84.41"/>
<text text-anchor="middle" x="258.28" y="-57.2" font-family="Times,serif" font-size="14.00"> east</text>
</g>
<!-- west_teller_room&#45;&gt;bank_entrance -->
<g id="edge54" class="edge">
<title>west_teller_room&#45;&gt;bank_entrance</title>
<path fill="none" stroke="black" d="M258.92,-213.41C259.6,-223.5 259.6,-236.38 256.9,-247.5 256.3,-249.98 255.49,-252.49 254.55,-254.95"/>
<polygon fill="black" stroke="black" points="251.41,-253.41 250.41,-263.96 257.77,-256.33 251.41,-253.41"/>
<text text-anchor="middle" x="276.4" y="-234.2" font-family="Times,serif" font-size="14.00"> south</text>
</g>
<!-- west_teller_room&#45;&gt;safety_depository -->
<g id="edge55" class="edge">
<title>west_teller_room&#45;&gt;safety_depository</title>
<path fill="none" stroke="black" d="M247.7,-177.11C243.34,-166.73 240.12,-153.38 245.4,-142.5 247.38,-138.44 250.07,-134.71 253.17,-131.32"/>
<polygon fill="black" stroke="black" points="255.44,-133.99 260.41,-124.64 250.69,-128.85 255.44,-133.99"/>
<text text-anchor="middle" x="260.15" y="-145.7" font-family="Times,serif" font-size="14.00"> west</text>
</g>
<!-- viewing_room -->
<g id="node28" class="node">
<title>viewing_room</title>
<ellipse fill="none" stroke="black" cx="129.9" cy="-106.5" rx="65.17" ry="18"/>
<text text-anchor="middle" x="129.9" y="-101.45" font-family="Times,serif" font-size="14.00">viewing_room</text>
</g>
<!-- west_teller_room&#45;&gt;viewing_room -->
<g id="edge56" class="edge">
<title>west_teller_room&#45;&gt;viewing_room</title>
<path fill="none" stroke="black" d="M232.72,-177.53C212.91,-164.03 184.68,-144.81 162.81,-129.91"/>
<polygon fill="black" stroke="black" points="165.06,-127.21 154.82,-124.47 161.12,-132.99 165.06,-127.21"/>
<text text-anchor="middle" x="221.03" y="-145.7" font-family="Times,serif" font-size="14.00"> north</text>
</g>
<!-- safety_depository&#45;&gt;east_teller_room -->
<g id="edge50" class="edge">
<title>safety_depository&#45;&gt;east_teller_room</title>
<path fill="none" stroke="black" d="M234.5,-93.74C220.81,-88.55 207.21,-81.13 197.15,-70.5 191.13,-64.13 187.34,-55.55 184.95,-47.21"/>
<polygon fill="black" stroke="black" points="188.42,-46.7 182.82,-37.71 181.59,-48.23 188.42,-46.7"/>
<text text-anchor="middle" x="210.28" y="-57.2" font-family="Times,serif" font-size="14.00"> east</text>
</g>
<!-- safety_depository&#45;&gt;west_teller_room -->
<g id="edge52" class="edge">
<title>safety_depository&#45;&gt;west_teller_room</title>
<path fill="none" stroke="black" d="M287.3,-124.61C285.41,-134.83 282.38,-147.94 277.9,-159 276.83,-161.64 275.58,-164.32 274.23,-166.96"/>
<polygon fill="black" stroke="black" points="271.31,-165 269.45,-175.43 277.41,-168.44 271.31,-165"/>
<text text-anchor="middle" x="298.15" y="-145.7" font-family="Times,serif" font-size="14.00"> west</text>
</g>
<!-- chairmans_office -->
<g id="node27" class="node">
<title>chairmans_office</title>
<ellipse fill="none" stroke="black" cx="347.9" cy="-18" rx="75.41" ry="18"/>
<text text-anchor="middle" x="347.9" y="-12.95" font-family="Times,serif" font-size="14.00">chairmans_office</text>
</g>
<!-- safety_depository&#45;&gt;chairmans_office -->
<g id="edge51" class="edge">
<title>safety_depository&#45;&gt;chairmans_office</title>
<path fill="none" stroke="black" d="M286.25,-88.17C284.96,-77.62 285.04,-64.25 290.9,-54 293.79,-48.96 297.71,-44.56 302.17,-40.73"/>
<polygon fill="black" stroke="black" points="304.04,-43.7 310.04,-34.97 299.9,-38.06 304.04,-43.7"/>
<text text-anchor="middle" x="307.4" y="-57.2" font-family="Times,serif" font-size="14.00"> south</text>
</g>
<!-- chairmans_office&#45;&gt;safety_depository -->
<g id="edge53" class="edge">
<title>chairmans_office&#45;&gt;safety_depository</title>
<path fill="none" stroke="black" d="M341.67,-36C337.44,-46.42 331.29,-59.78 323.9,-70.5 321.55,-73.91 318.86,-77.29 316.04,-80.53"/>
<polygon fill="black" stroke="black" points="313.72,-77.9 309.47,-87.6 318.84,-82.66 313.72,-77.9"/>
<text text-anchor="middle" x="350.03" y="-57.2" font-family="Times,serif" font-size="14.00"> north</text>
</g>
<!-- viewing_room&#45;&gt;bank_entrance -->
<g id="edge57" class="edge">
<title>viewing_room&#45;&gt;bank_entrance</title>
<path fill="none" stroke="black" d="M127.11,-124.9C124.47,-146.97 122.98,-185.47 138.9,-213 151.4,-234.61 173.63,-251.07 193.97,-262.53"/>
<polygon fill="black" stroke="black" points="192.25,-265.58 202.72,-267.2 195.55,-259.4 192.25,-265.58"/>
<text text-anchor="middle" x="155.4" y="-189.95" font-family="Times,serif" font-size="14.00"> south</text>
</g>
<!-- east_west_passageway&#45;&gt;troll_room -->
<g id="edge67" class="edge">
<title>east_west_passageway&#45;&gt;troll_room</title>
<path fill="none" stroke="black" d="M597.25,-390.23C591.85,-401 583.82,-414.64 573.9,-424.5 568.15,-430.21 561.29,-435.36 554.31,-439.84"/>
<polygon fill="black" stroke="black" points="552.9,-436.61 546.12,-444.75 556.5,-442.62 552.9,-436.61"/>
<text text-anchor="middle" x="600.15" y="-411.2" font-family="Times,serif" font-size="14.00"> west</text>
</g>
<!-- round_room -->
<g id="node31" class="node">
<title>round_room</title>
<ellipse fill="none" stroke="black" cx="501.9" cy="-283.5" rx="56.98" ry="18"/>
<text text-anchor="middle" x="501.9" y="-278.45" font-family="Times,serif" font-size="14.00">round_room</text>
</g>
<!-- east_west_passageway&#45;&gt;round_room -->
<g id="edge68" class="edge">
<title>east_west_passageway&#45;&gt;round_room</title>
<path fill="none" stroke="black" d="M585.04,-354.32C569.41,-341.19 547.43,-322.74 530,-308.09"/>
<polygon fill="black" stroke="black" points="532.42,-305.56 522.51,-301.81 527.92,-310.92 532.42,-305.56"/>
<text text-anchor="middle" x="574.28" y="-322.7" font-family="Times,serif" font-size="14.00"> east</text>
</g>
<!-- deep_ravine -->
<g id="node32" class="node">
<title>deep_ravine</title>
<ellipse fill="none" stroke="black" cx="758.9" cy="-283.5" rx="55.96" ry="18"/>
<text text-anchor="middle" x="758.9" y="-278.45" font-family="Times,serif" font-size="14.00">deep_ravine</text>
</g>
<!-- east_west_passageway&#45;&gt;deep_ravine -->
<g id="edge69" class="edge">
<title>east_west_passageway&#45;&gt;deep_ravine</title>
<path fill="none" stroke="black" d="M619.89,-353.76C630.27,-342.71 644.91,-328.75 660.15,-319.5 674.04,-311.07 690.26,-304.26 705.49,-298.97"/>
<polygon fill="black" stroke="black" points="706.53,-302.32 714.92,-295.86 704.33,-295.67 706.53,-302.32"/>
<text text-anchor="middle" x="676.78" y="-322.7" font-family="Times,serif" font-size="14.00"> down</text>
</g>
<!-- engraving_cave -->
<g id="node33" class="node">
<title>engraving_cave</title>
<ellipse fill="none" stroke="black" cx="502.9" cy="-195" rx="69.26" ry="18"/>
<text text-anchor="middle" x="502.9" y="-189.95" font-family="Times,serif" font-size="14.00">engraving_cave</text>
</g>
<!-- round_room&#45;&gt;engraving_cave -->
<g id="edge71" class="edge">
<title>round_room&#45;&gt;engraving_cave</title>
<path fill="none" stroke="black" d="M500.54,-265.33C499.91,-255.32 499.41,-242.44 499.9,-231 499.99,-228.94 500.11,-226.82 500.25,-224.68"/>
<polygon fill="black" stroke="black" points="503.72,-225.18 501,-214.94 496.74,-224.64 503.72,-225.18"/>
</g>
<!-- deep_ravine&#45;&gt;east_west_passageway -->
<g id="edge70" class="edge">
<title>deep_ravine&#45;&gt;east_west_passageway</title>
<path fill="none" stroke="black" d="M741.18,-300.92C728.67,-311.9 711.12,-326.09 693.9,-336 683.76,-341.84 672.46,-347.11 661.4,-351.7"/>
<polygon fill="black" stroke="black" points="660.33,-348.36 652.33,-355.31 662.92,-354.86 660.33,-348.36"/>
<text text-anchor="middle" x="734.4" y="-322.7" font-family="Times,serif" font-size="14.00"> south</text>
</g>
<!-- engraving_cave&#45;&gt;round_room -->
<g id="edge72" class="edge">
<title>engraving_cave&#45;&gt;round_room</title>
<path fill="none" stroke="black" d="M502.7,-213.35C502.57,-225.06 502.39,-240.79 502.23,-254.28"/>
<polygon fill="black" stroke="black" points="498.73,-253.86 502.12,-263.9 505.73,-253.94 498.73,-253.86"/>
<text text-anchor="middle" x="518.03" y="-234.2" font-family="Times,serif" font-size="14.00"> north</text>
</g>
<!-- riddle_room -->
<g id="node34" class="node">
<title>riddle_room</title>
<ellipse fill="none" stroke="black" cx="526.9" cy="-106.5" rx="56.98" ry="18"/>
<text text-anchor="middle" x="526.9" y="-101.45" font-family="Times,serif" font-size="14.00">riddle_room</text>
</g>
<!-- engraving_cave&#45;&gt;riddle_room -->
<g id="edge73" class="edge">
<title>engraving_cave&#45;&gt;riddle_room</title>
<path fill="none" stroke="black" d="M507.65,-176.91C510.91,-165.14 515.33,-149.23 519.1,-135.61"/>
<polygon fill="black" stroke="black" points="522.38,-136.88 521.68,-126.31 515.64,-135.01 522.38,-136.88"/>
<text text-anchor="middle" x="543.9" y="-145.7" font-family="Times,serif" font-size="14.00"> southeast</text>
</g>
<!-- riddle_room&#45;&gt;engraving_cave -->
<g id="edge74" class="edge">
<title>riddle_room&#45;&gt;engraving_cave</title>
<path fill="none" stroke="black" d="M494.75,-121.75C486.56,-127.02 478.78,-133.88 474.15,-142.5 469.63,-150.93 472.24,-160.07 477.38,-168.27"/>
<polygon fill="black" stroke="black" points="474.54,-170.33 483.38,-176.17 480.11,-166.09 474.54,-170.33"/>
<text text-anchor="middle" x="490.78" y="-145.7" font-family="Times,serif" font-size="14.00"> down</text>
</g>
<!-- ridde_room -->
<g id="node35" class="node">
<title>ridde_room</title>
<ellipse fill="none" stroke="black" cx="630.9" cy="-283.5" rx="54.42" ry="18"/>
<text text-anchor="middle" x="630.9" y="-278.45" font-family="Times,serif" font-size="14.00">ridde_room</text>
</g>
<!-- pearl_room -->
<g id="node36" class="node">
<title>pearl_room</title>
<ellipse fill="none" stroke="black" cx="649.9" cy="-195" rx="53.91" ry="18"/>
<text text-anchor="middle" x="649.9" y="-189.95" font-family="Times,serif" font-size="14.00">pearl_room</text>
</g>
<!-- ridde_room&#45;&gt;pearl_room -->
<g id="edge75" class="edge">
<title>ridde_room&#45;&gt;pearl_room</title>
<path fill="none" stroke="black" d="M634.66,-265.41C637.22,-253.76 640.67,-238.05 643.64,-224.52"/>
<polygon fill="black" stroke="black" points="647.04,-225.35 645.77,-214.83 640.2,-223.84 647.04,-225.35"/>
<text text-anchor="middle" x="654.28" y="-234.2" font-family="Times,serif" font-size="14.00"> east</text>
</g>
<!-- pearl_room&#45;&gt;riddle_room -->
<g id="edge76" class="edge">
<title>pearl_room&#45;&gt;riddle_room</title>
<path fill="none" stroke="black" d="M627.63,-178.34C608.33,-164.76 580.19,-144.97 558.56,-129.76"/>
<polygon fill="black" stroke="black" points="560.86,-127.1 550.67,-124.21 556.83,-132.83 560.86,-127.1"/>
<text text-anchor="middle" x="613.15" y="-145.7" font-family="Times,serif" font-size="14.00"> west</text>
</g>
<!-- circular_room -->
<g id="node37" class="node">
<title>circular_room</title>
<ellipse fill="none" stroke="black" cx="684.9" cy="-106.5" rx="63.63" ry="18"/>
<text text-anchor="middle" x="684.9" y="-101.45" font-family="Times,serif" font-size="14.00">circular_room</text>
</g>
<!-- pearl_room&#45;&gt;circular_room -->
<g id="edge77" class="edge">
<title>pearl_room&#45;&gt;circular_room</title>
<path fill="none" stroke="black" d="M650.08,-176.69C650.73,-166.4 652.53,-153.29 657.15,-142.5 658.52,-139.32 660.24,-136.19 662.17,-133.19"/>
<polygon fill="black" stroke="black" points="664.83,-135.48 667.9,-125.34 659.18,-131.35 664.83,-135.48"/>
<text text-anchor="middle" x="669.28" y="-145.7" font-family="Times,serif" font-size="14.00"> east</text>
</g>
<!-- circular_room&#45;&gt;pearl_room -->
<g id="edge78" class="edge">
<title>circular_room&#45;&gt;pearl_room</title>
<path fill="none" stroke="black" d="M686.73,-124.85C687.13,-135.16 686.43,-148.27 681.9,-159 680.38,-162.6 678.33,-166.06 675.99,-169.32"/>
<polygon fill="black" stroke="black" points="673.52,-166.82 669.82,-176.74 678.9,-171.29 673.52,-166.82"/>
<text text-anchor="middle" x="700.15" y="-145.7" font-family="Times,serif" font-size="14.00"> west</text>
</g>
</g>
</svg>
