<?xml version="1.0" encoding="UTF-8" standalone="no"?>
<!DOCTYPE svg PUBLIC "-//W3C//DTD SVG 1.1//EN"
 "http://www.w3.org/Graphics/SVG/1.1/DTD/svg11.dtd">
<!-- Generated by graphviz version 9.0.0 (20230911.1827)
 -->
<!-- Title: zork Pages: 1 -->
<svg width="681pt" height="575pt"
 viewBox="0.00 0.00 681.05 575.00" xmlns="http://www.w3.org/2000/svg" xmlns:xlink="http://www.w3.org/1999/xlink">
<g id="graph0" class="graph" transform="scale(1 1) rotate(0) translate(4 571)">
<title>zork</title>
<polygon fill="white" stroke="none" points="-4,4 -4,-571 677.05,-571 677.05,4 -4,4"/>
<!-- west_of_house -->
<g id="node1" class="node">
<title>west_of_house</title>
<ellipse fill="none" stroke="black" cx="150" cy="-549" rx="66.19" ry="18"/>
<text text-anchor="middle" x="150" y="-543.95" font-family="Times,serif" font-size="14.00">west_of_house</text>
</g>
<!-- north_of_house -->
<g id="node2" class="node">
<title>north_of_house</title>
<ellipse fill="none" stroke="black" cx="97" cy="-283.5" rx="68.75" ry="18"/>
<text text-anchor="middle" x="97" y="-278.45" font-family="Times,serif" font-size="14.00">north_of_house</text>
</g>
<!-- west_of_house&#45;&gt;north_of_house -->
<g id="edge1" class="edge">
<title>west_of_house&#45;&gt;north_of_house</title>
<path fill="none" stroke="black" d="M139.67,-530.78C126.43,-507.59 104.17,-464.61 95.75,-424.5 87.8,-386.62 90.22,-341.69 93.19,-313.14"/>
<polygon fill="black" stroke="black" points="96.64,-313.82 94.3,-303.48 89.68,-313.02 96.64,-313.82"/>
<text text-anchor="middle" x="112.12" y="-411.2" font-family="Times,serif" font-size="14.00"> north</text>
</g>
<!-- south_of_house -->
<g id="node3" class="node">
<title>south_of_house</title>
<ellipse fill="none" stroke="black" cx="154" cy="-106.5" rx="69.26" ry="18"/>
<text text-anchor="middle" x="154" y="-101.45" font-family="Times,serif" font-size="14.00">south_of_house</text>
</g>
<!-- west_of_house&#45;&gt;south_of_house -->
<g id="edge2" class="edge">
<title>west_of_house&#45;&gt;south_of_house</title>
<path fill="none" stroke="black" d="M164.65,-531.06C177.45,-514.49 194,-487.95 194,-461.5 194,-461.5 194,-461.5 194,-194 194,-172.49 183.68,-150.52 173.53,-134.1"/>
<polygon fill="black" stroke="black" points="176.57,-132.35 168.15,-125.91 170.72,-136.19 176.57,-132.35"/>
<text text-anchor="middle" x="210.5" y="-322.7" font-family="Times,serif" font-size="14.00"> south</text>
</g>
<!-- forest_i -->
<g id="node4" class="node">
<title>forest_i</title>
<ellipse fill="none" stroke="black" cx="302" cy="-460.5" rx="39.07" ry="18"/>
<text text-anchor="middle" x="302" y="-455.45" font-family="Times,serif" font-size="14.00">forest_i</text>
</g>
<!-- west_of_house&#45;&gt;forest_i -->
<g id="edge3" class="edge">
<title>west_of_house&#45;&gt;forest_i</title>
<path fill="none" stroke="black" d="M177.53,-532.34C203.01,-517.83 240.99,-496.22 268.29,-480.69"/>
<polygon fill="black" stroke="black" points="269.9,-483.79 276.86,-475.81 266.44,-477.71 269.9,-483.79"/>
<text text-anchor="middle" x="253.25" y="-499.7" font-family="Times,serif" font-size="14.00"> west</text>
</g>
<!-- north_of_house&#45;&gt;west_of_house -->
<g id="edge5" class="edge">
<title>north_of_house&#45;&gt;west_of_house</title>
<path fill="none" stroke="black" d="M101.51,-301.94C102.96,-307.54 104.55,-313.78 106,-319.5 115.94,-358.79 119.96,-368.28 128,-408 135.77,-446.4 142.39,-491.2 146.28,-519.58"/>
<polygon fill="black" stroke="black" points="142.77,-519.73 147.57,-529.17 149.71,-518.79 142.77,-519.73"/>
<text text-anchor="middle" x="146.25" y="-411.2" font-family="Times,serif" font-size="14.00"> west</text>
</g>
<!-- behind_house -->
<g id="node5" class="node">
<title>behind_house</title>
<ellipse fill="none" stroke="black" cx="101" cy="-195" rx="62.1" ry="18"/>
<text text-anchor="middle" x="101" y="-189.95" font-family="Times,serif" font-size="14.00">behind_house</text>
</g>
<!-- north_of_house&#45;&gt;behind_house -->
<g id="edge4" class="edge">
<title>north_of_house&#45;&gt;behind_house</title>
<path fill="none" stroke="black" d="M100.58,-265.13C101.57,-259.53 102.51,-253.27 103,-247.5 103.63,-240.1 103.64,-232.09 103.37,-224.63"/>
<polygon fill="black" stroke="black" points="106.87,-224.49 102.81,-214.7 99.88,-224.88 106.87,-224.49"/>
<text text-anchor="middle" x="116.38" y="-234.2" font-family="Times,serif" font-size="14.00"> east</text>
</g>
<!-- south_of_house&#45;&gt;west_of_house -->
<g id="edge8" class="edge">
<title>south_of_house&#45;&gt;west_of_house</title>
<path fill="none" stroke="black" d="M95.34,-116.36C51.82,-126.65 0,-148.46 0,-194 0,-461.5 0,-461.5 0,-461.5 0,-502.81 43.21,-524.69 83.25,-536.1"/>
<polygon fill="black" stroke="black" points="82.12,-539.42 92.68,-538.6 83.91,-532.66 82.12,-539.42"/>
<text text-anchor="middle" x="14.25" y="-322.7" font-family="Times,serif" font-size="14.00"> west</text>
</g>
<!-- south_of_house&#45;&gt;behind_house -->
<g id="edge9" class="edge">
<title>south_of_house&#45;&gt;behind_house</title>
<path fill="none" stroke="black" d="M148.17,-124.88C144.33,-135.21 138.76,-148.32 132,-159 129.9,-162.32 127.48,-165.64 124.94,-168.84"/>
<polygon fill="black" stroke="black" points="122.42,-166.4 118.61,-176.28 127.75,-170.93 122.42,-166.4"/>
<text text-anchor="middle" x="153.38" y="-145.7" font-family="Times,serif" font-size="14.00"> east</text>
</g>
<!-- forest_i&#45;&gt;forest_i -->
<g id="edge10" class="edge">
<title>forest_i&#45;&gt;forest_i</title>
<path fill="none" stroke="black" d="M337.11,-468.79C349.26,-468.88 359.07,-466.12 359.07,-460.5 359.07,-456.81 354.84,-454.36 348.5,-453.13"/>
<polygon fill="black" stroke="black" points="348.87,-449.64 338.62,-452.33 348.3,-456.62 348.87,-449.64"/>
<text text-anchor="middle" x="375.19" y="-455.45" font-family="Times,serif" font-size="14.00"> north</text>
</g>
<!-- forest_ii -->
<g id="node6" class="node">
<title>forest_ii</title>
<ellipse fill="none" stroke="black" cx="302" cy="-372" rx="41.63" ry="18"/>
<text text-anchor="middle" x="302" y="-366.95" font-family="Times,serif" font-size="14.00">forest_ii</text>
</g>
<!-- forest_i&#45;&gt;forest_ii -->
<g id="edge11" class="edge">
<title>forest_i&#45;&gt;forest_ii</title>
<path fill="none" stroke="black" d="M302,-442.41C302,-430.76 302,-415.05 302,-401.52"/>
<polygon fill="black" stroke="black" points="305.5,-401.86 302,-391.86 298.5,-401.86 305.5,-401.86"/>
<text text-anchor="middle" x="314.38" y="-411.2" font-family="Times,serif" font-size="14.00"> east</text>
</g>
<!-- forest_iii -->
<g id="node7" class="node">
<title>forest_iii</title>
<ellipse fill="none" stroke="black" cx="424" cy="-372" rx="44.19" ry="18"/>
<text text-anchor="middle" x="424" y="-366.95" font-family="Times,serif" font-size="14.00">forest_iii</text>
</g>
<!-- forest_i&#45;&gt;forest_iii -->
<g id="edge12" class="edge">
<title>forest_i&#45;&gt;forest_iii</title>
<path fill="none" stroke="black" d="M322.7,-444.83C342.12,-431.05 371.41,-410.29 393.51,-394.62"/>
<polygon fill="black" stroke="black" points="395.42,-397.55 401.56,-388.91 391.38,-391.84 395.42,-397.55"/>
<text text-anchor="middle" x="389.5" y="-411.2" font-family="Times,serif" font-size="14.00"> south</text>
</g>
<!-- behind_house&#45;&gt;north_of_house -->
<g id="edge7" class="edge">
<title>behind_house&#45;&gt;north_of_house</title>
<path fill="none" stroke="black" d="M80.12,-212.13C74.73,-217.49 69.64,-223.92 66.75,-231 63.15,-239.83 66.04,-248.97 71.23,-257.05"/>
<polygon fill="black" stroke="black" points="68.31,-258.99 77.19,-264.77 73.85,-254.72 68.31,-258.99"/>
<text text-anchor="middle" x="83.12" y="-234.2" font-family="Times,serif" font-size="14.00"> north</text>
</g>
<!-- behind_house&#45;&gt;south_of_house -->
<g id="edge6" class="edge">
<title>behind_house&#45;&gt;south_of_house</title>
<path fill="none" stroke="black" d="M96.05,-176.74C94.03,-166.22 93.32,-152.85 99,-142.5 101.79,-137.42 105.66,-132.97 110.07,-129.11"/>
<polygon fill="black" stroke="black" points="111.95,-132.08 117.86,-123.29 107.76,-126.47 111.95,-132.08"/>
<text text-anchor="middle" x="115.5" y="-145.7" font-family="Times,serif" font-size="14.00"> south</text>
</g>
<!-- forest_ii&#45;&gt;north_of_house -->
<g id="edge14" class="edge">
<title>forest_ii&#45;&gt;north_of_house</title>
<path fill="none" stroke="black" d="M283.64,-355.5C269.3,-344.1 248.44,-328.99 228,-319.5 207.63,-310.05 184.26,-302.78 162.95,-297.38"/>
<polygon fill="black" stroke="black" points="164.03,-294.04 153.49,-295.09 162.38,-300.85 164.03,-294.04"/>
<text text-anchor="middle" x="269.25" y="-322.7" font-family="Times,serif" font-size="14.00"> west</text>
</g>
<!-- up_a_tree -->
<g id="node8" class="node">
<title>up_a_tree</title>
<ellipse fill="none" stroke="black" cx="309" cy="-283.5" rx="47.26" ry="18"/>
<text text-anchor="middle" x="309" y="-278.45" font-family="Times,serif" font-size="14.00">up_a_tree</text>
</g>
<!-- forest_ii&#45;&gt;up_a_tree -->
<g id="edge13" class="edge">
<title>forest_ii&#45;&gt;up_a_tree</title>
<path fill="none" stroke="black" d="M301.56,-353.8C301.47,-343.77 301.66,-330.89 302.75,-319.5 302.95,-317.42 303.2,-315.29 303.5,-313.14"/>
<polygon fill="black" stroke="black" points="306.94,-313.8 305.08,-303.36 300.03,-312.68 306.94,-313.8"/>
<text text-anchor="middle" x="310.62" y="-322.7" font-family="Times,serif" font-size="14.00"> up</text>
</g>
<!-- forest_iii&#45;&gt;south_of_house -->
<g id="edge16" class="edge">
<title>forest_iii&#45;&gt;south_of_house</title>
<path fill="none" stroke="black" d="M417.03,-354C407.47,-332.01 388.75,-293.24 365,-265.5 314.36,-206.36 237.84,-156.04 192.2,-128.94"/>
<polygon fill="black" stroke="black" points="194.1,-126 183.71,-123.96 190.56,-132.04 194.1,-126"/>
<text text-anchor="middle" x="364.12" y="-234.2" font-family="Times,serif" font-size="14.00"> north</text>
</g>
<!-- clearing -->
<g id="node9" class="node">
<title>clearing</title>
<ellipse fill="none" stroke="black" cx="460" cy="-283.5" rx="40.6" ry="18"/>
<text text-anchor="middle" x="460" y="-278.45" font-family="Times,serif" font-size="14.00">clearing</text>
</g>
<!-- forest_iii&#45;&gt;clearing -->
<g id="edge17" class="edge">
<title>forest_iii&#45;&gt;clearing</title>
<path fill="none" stroke="black" d="M421.3,-353.63C420.44,-343.31 420.69,-330.2 425.25,-319.5 427.01,-315.36 429.51,-311.45 432.38,-307.85"/>
<polygon fill="black" stroke="black" points="434.79,-310.4 439,-300.68 429.64,-305.65 434.79,-310.4"/>
<text text-anchor="middle" x="437.38" y="-322.7" font-family="Times,serif" font-size="14.00"> east</text>
</g>
<!-- forest_iv -->
<g id="node10" class="node">
<title>forest_iv</title>
<ellipse fill="none" stroke="black" cx="613" cy="-283.5" rx="43.67" ry="18"/>
<text text-anchor="middle" x="613" y="-278.45" font-family="Times,serif" font-size="14.00">forest_iv</text>
</g>
<!-- forest_iii&#45;&gt;forest_iv -->
<g id="edge18" class="edge">
<title>forest_iii&#45;&gt;forest_iv</title>
<path fill="none" stroke="black" d="M452.71,-357.86C485.22,-342.98 538.38,-318.65 574.49,-302.13"/>
<polygon fill="black" stroke="black" points="575.63,-305.45 583.27,-298.11 572.72,-299.09 575.63,-305.45"/>
<text text-anchor="middle" x="551.5" y="-322.7" font-family="Times,serif" font-size="14.00"> south</text>
</g>
<!-- up_a_tree&#45;&gt;forest_ii -->
<g id="edge15" class="edge">
<title>up_a_tree&#45;&gt;forest_ii</title>
<path fill="none" stroke="black" d="M316.57,-301.72C320,-311.75 322.75,-324.63 320,-336 319.36,-338.63 318.49,-341.29 317.47,-343.9"/>
<polygon fill="black" stroke="black" points="314.37,-342.28 313.32,-352.82 320.72,-345.23 314.37,-342.28"/>
<text text-anchor="middle" x="337.88" y="-322.7" font-family="Times,serif" font-size="14.00"> down</text>
</g>
<!-- clearing&#45;&gt;forest_iii -->
<g id="edge20" class="edge">
<title>clearing&#45;&gt;forest_iii</title>
<path fill="none" stroke="black" d="M458.59,-301.77C457.28,-312.06 454.78,-325.17 450,-336 448.58,-339.22 446.82,-342.43 444.88,-345.52"/>
<polygon fill="black" stroke="black" points="442.07,-343.43 439.21,-353.63 447.81,-347.44 442.07,-343.43"/>
<text text-anchor="middle" x="471.5" y="-322.7" font-family="Times,serif" font-size="14.00"> south</text>
</g>
<!-- clearing&#45;&gt;clearing -->
<g id="edge19" class="edge">
<title>clearing&#45;&gt;clearing</title>
<path fill="none" stroke="black" d="M496.63,-291.8C508.84,-291.8 518.6,-289.03 518.6,-283.5 518.6,-279.87 514.4,-277.43 508.05,-276.18"/>
<polygon fill="black" stroke="black" points="508.4,-272.7 498.14,-275.33 507.8,-279.67 508.4,-272.7"/>
<text text-anchor="middle" x="534.73" y="-278.45" font-family="Times,serif" font-size="14.00"> north</text>
</g>
<!-- canyon_view -->
<g id="node11" class="node">
<title>canyon_view</title>
<ellipse fill="none" stroke="black" cx="613" cy="-195" rx="60.05" ry="18"/>
<text text-anchor="middle" x="613" y="-189.95" font-family="Times,serif" font-size="14.00">canyon_view</text>
</g>
<!-- forest_iv&#45;&gt;canyon_view -->
<g id="edge21" class="edge">
<title>forest_iv&#45;&gt;canyon_view</title>
<path fill="none" stroke="black" d="M616.58,-265.13C617.57,-259.53 618.51,-253.27 619,-247.5 619.62,-240.19 619.62,-238.31 619,-231 618.82,-228.92 618.59,-226.79 618.31,-224.64"/>
<polygon fill="black" stroke="black" points="621.79,-224.22 616.81,-214.87 614.87,-225.28 621.79,-224.22"/>
<text text-anchor="middle" x="631.38" y="-234.2" font-family="Times,serif" font-size="14.00"> east</text>
</g>
<!-- canyon_view&#45;&gt;forest_iv -->
<g id="edge22" class="edge">
<title>canyon_view&#45;&gt;forest_iv</title>
<path fill="none" stroke="black" d="M594.07,-212.45C589.19,-217.82 584.59,-224.17 582,-231 579.4,-237.86 579.4,-240.64 582,-247.5 583.39,-251.18 585.37,-254.72 587.66,-258.04"/>
<polygon fill="black" stroke="black" points="584.76,-260.01 593.77,-265.59 590.2,-255.61 584.76,-260.01"/>
<text text-anchor="middle" x="598.5" y="-234.2" font-family="Times,serif" font-size="14.00"> south</text>
</g>
<!-- forest_v -->
<g id="node12" class="node">
<title>forest_v</title>
<ellipse fill="none" stroke="black" cx="612" cy="-106.5" rx="41.12" ry="18"/>
<text text-anchor="middle" x="612" y="-101.45" font-family="Times,serif" font-size="14.00">forest_v</text>
</g>
<!-- canyon_view&#45;&gt;forest_v -->
<g id="edge23" class="edge">
<title>canyon_view&#45;&gt;forest_v</title>
<path fill="none" stroke="black" d="M623.01,-177.01C627.69,-167.05 631.69,-154.18 629,-142.5 628.4,-139.89 627.58,-137.25 626.62,-134.65"/>
<polygon fill="black" stroke="black" points="629.94,-133.5 622.71,-125.76 623.53,-136.32 629.94,-133.5"/>
<text text-anchor="middle" x="643.25" y="-145.7" font-family="Times,serif" font-size="14.00"> west</text>
</g>
<!-- forest_v&#45;&gt;canyon_view -->
<g id="edge24" class="edge">
<title>forest_v&#45;&gt;canyon_view</title>
<path fill="none" stroke="black" d="M588.79,-121.78C576.22,-131.47 564.46,-145.03 571,-159 572.94,-163.14 575.63,-166.95 578.73,-170.43"/>
<polygon fill="black" stroke="black" points="576.3,-172.95 585.96,-177.29 581.12,-167.87 576.3,-172.95"/>
<text text-anchor="middle" x="598" y="-145.7" font-family="Times,serif" font-size="14.00"> southeast</text>
</g>
<!-- forest_vi -->
<g id="node13" class="node">
<title>forest_vi</title>
<ellipse fill="none" stroke="black" cx="612" cy="-18" rx="43.67" ry="18"/>
<text text-anchor="middle" x="612" y="-12.95" font-family="Times,serif" font-size="14.00">forest_vi</text>
</g>
<!-- forest_v&#45;&gt;forest_vi -->
<g id="edge25" class="edge">
<title>forest_v&#45;&gt;forest_vi</title>
<path fill="none" stroke="black" d="M612,-88.41C612,-76.76 612,-61.05 612,-47.52"/>
<polygon fill="black" stroke="black" points="615.5,-47.86 612,-37.86 608.5,-47.86 615.5,-47.86"/>
<text text-anchor="middle" x="628.5" y="-57.2" font-family="Times,serif" font-size="14.00"> south</text>
</g>
</g>
</svg>
